<mxfile host="app.diagrams.net" agent="Mozilla/5.0 (X11; Ubuntu; Linux x86_64; rv:129.0) Gecko/20100101 Firefox/129.0" version="26.0.5">
  <diagram name="Page-1" id="fbcf5db9-b524-4cd4-e4f3-379dc89c3999">
    <mxGraphModel dx="2377" dy="1402" grid="1" gridSize="10" guides="1" tooltips="1" connect="1" arrows="1" fold="1" page="1" pageScale="1" pageWidth="850" pageHeight="1100" background="none" math="0" shadow="0">
      <root>
        <mxCell id="0" />
        <mxCell id="1" parent="0" />
        <mxCell id="esfX10ickzwYWV4Qpk32-12" value="" style="whiteSpace=wrap;html=1;fontStyle=1" vertex="1" parent="1">
          <mxGeometry x="784.5" y="715" width="440" height="345" as="geometry" />
        </mxCell>
        <mxCell id="esfX10ickzwYWV4Qpk32-10" value="" style="shape=image;verticalLabelPosition=bottom;labelBackgroundColor=#ffffff;verticalAlign=top;aspect=fixed;imageAspect=0;image=data:image/svg+xml,PHN2ZyB4bWxuczpjYz0iaHR0cDovL2NyZWF0aXZlY29tbW9ucy5vcmcvbnMjIiB4bWxuczpkYz0iaHR0cDovL3B1cmwub3JnL2RjL2VsZW1lbnRzLzEuMS8iIHhtbG5zOmlua3NjYXBlPSJodHRwOi8vd3d3Lmlua3NjYXBlLm9yZy9uYW1lc3BhY2VzL2lua3NjYXBlIiB4bWxuczpyZGY9Imh0dHA6Ly93d3cudzMub3JnLzE5OTkvMDIvMjItcmRmLXN5bnRheC1ucyMiIHhtbG5zOnNvZGlwb2RpPSJodHRwOi8vc29kaXBvZGkuc291cmNlZm9yZ2UubmV0L0RURC9zb2RpcG9kaS0wLmR0ZCIgeG1sbnM6c3ZnPSJodHRwOi8vd3d3LnczLm9yZy8yMDAwL3N2ZyIgeG1sbnM9Imh0dHA6Ly93d3cudzMub3JnLzIwMDAvc3ZnIiB4bWxuczp4bGluaz0iaHR0cDovL3d3dy53My5vcmcvMTk5OS94bGluayIgdmVyc2lvbj0iMS4xIiBpZD0ic3ZnMTk3ODgwIiBpbmtzY2FwZTp2ZXJzaW9uPSIwLjkyLjMgKDI0MDU1NDYsIDIwMTgtMDMtMTEpIiBzb2RpcG9kaTpkb2NuYW1lPSJyLnN2ZyIgeD0iMHB4IiB5PSIwcHgiIHZpZXdCb3g9IjAgMCA0OCAzNy44NyIgc3R5bGU9ImVuYWJsZS1iYWNrZ3JvdW5kOm5ldyAwIDAgNDggMzcuODc7IiB4bWw6c3BhY2U9InByZXNlcnZlIj4mI3hhOzxzb2RpcG9kaTpuYW1lZHZpZXcgYm9yZGVyY29sb3I9IiM2NjY2NjYiIGJvcmRlcm9wYWNpdHk9IjEiIGZpdC1tYXJnaW4tYm90dG9tPSIwIiBmaXQtbWFyZ2luLWxlZnQ9IjAiIGZpdC1tYXJnaW4tcmlnaHQ9IjAiIGZpdC1tYXJnaW4tdG9wPSIwIiBncmlkdG9sZXJhbmNlPSIxMCIgZ3VpZGV0b2xlcmFuY2U9IjEwIiBpZD0ibmFtZWR2aWV3MTk3ODgyIiBpbmtzY2FwZTpjdXJyZW50LWxheWVyPSJzdmcxOTc4ODAiIGlua3NjYXBlOmN4PSIzMiIgaW5rc2NhcGU6Y3k9IjI1LjI0MzMzMyIgaW5rc2NhcGU6cGFnZW9wYWNpdHk9IjAiIGlua3NjYXBlOnBhZ2VzaGFkb3c9IjIiIGlua3NjYXBlOndpbmRvdy1oZWlnaHQ9IjEwMTciIGlua3NjYXBlOndpbmRvdy1tYXhpbWl6ZWQ9IjEiIGlua3NjYXBlOndpbmRvdy13aWR0aD0iMTkyMCIgaW5rc2NhcGU6d2luZG93LXg9Ii04IiBpbmtzY2FwZTp3aW5kb3cteT0iLTgiIGlua3NjYXBlOnpvb209IjE2LjUxNDI4NiIgb2JqZWN0dG9sZXJhbmNlPSIxMCIgcGFnZWNvbG9yPSIjZmZmZmZmIiBzaG93Z3JpZD0iZmFsc2UiPiYjeGE7CTwvc29kaXBvZGk6bmFtZWR2aWV3PiYjeGE7PGcgaWQ9ImcxOTc4NzgiIHRyYW5zZm9ybT0idHJhbnNsYXRlKC0wLjc1LC0wLjc1KSI+JiN4YTsJPHRpdGxlIGlkPSJ0aXRsZTE5Nzg2MyI+UGFnZS0xPC90aXRsZT4mI3hhOwk8ZyBpZD0iZ3JvdXAxMjc5LTEiIHRyYW5zZm9ybT0idHJhbnNsYXRlKDAuNzUsLTAuNzUpIj4mI3hhOwkJPHRpdGxlIGlkPSJ0aXRsZTE5Nzg2NSI+UjwvdGl0bGU+JiN4YTsJCTxnIGlkPSJzaGFwZTEyODAtMiIgdHJhbnNmb3JtPSJ0cmFuc2xhdGUoMCwtNS4xNikiPiYjeGE7CQkJPHRpdGxlIGlkPSJ0aXRsZTE5Nzg2NyI+cGF0aDcxMjM8L3RpdGxlPiYjeGE7CQkJJiN4YTsJCQkJPGxpbmVhckdyYWRpZW50IGlkPSJwYXRoMTk3ODY5XzFfIiBncmFkaWVudFVuaXRzPSJ1c2VyU3BhY2VPblVzZSIgeDE9Ii00OS4wMzMxIiB5MT0iLTYwLjY5ODciIHgyPSItOS40MDg5IiB5Mj0iLTYwLjY5ODciIGdyYWRpZW50VHJhbnNmb3JtPSJtYXRyaXgoMS4yMTE0IDAgMCAtMC44MjU1IDU5LjM5NzcgLTI3LjA5MjEpIj4mI3hhOwkJCQk8c3RvcCBvZmZzZXQ9IjAiIHN0eWxlPSJzdG9wLWNvbG9yOiNCOEJCQkUiLz4mI3hhOwkJCQk8c3RvcCBvZmZzZXQ9IjEiIHN0eWxlPSJzdG9wLWNvbG9yOiM5MjkxOTgiLz4mI3hhOwkJCTwvbGluZWFyR3JhZGllbnQ+JiN4YTsJCQk8cGF0aCBpZD0icGF0aDE5Nzg2OSIgaW5rc2NhcGU6Y29ubmVjdG9yLWN1cnZhdHVyZT0iMCIgc3R5bGU9ImZpbGw6dXJsKCNwYXRoMTk3ODY5XzFfKTsiIGQ9Ik00OCwyMy4wMiAgICAgYzAsOS0xMC43NSwxNi4zNS0yNCwxNi4zNWMtMTMuMjUsMC0yNC03LjMyLTI0LTE2LjM1QzAsMTMuOTgsMTAuNzUsNi42NiwyNCw2LjY2UzQ4LDEzLjk5LDQ4LDIzLjAyeiBNMjcuNDgsMTMuMDEgICAgIGMtOS44NiwwLTE3Ljg1LDUuMDItMTcuODUsMTEuMjFjMCw2LjE4LDcuOTksMTEuMjEsMTcuODUsMTEuMjFjMTIuNTIsMCwxNy44NS01LjAyLDE3Ljg1LTExLjIxICAgICBDNDUuMzMsMTguMDQsMzguOTEsMTMuMDEsMjcuNDgsMTMuMDF6Ii8+JiN4YTsJCTwvZz4mI3hhOwkJPGcgaWQ9InNoYXBlMTI4MS02IiB0cmFuc2Zvcm09InRyYW5zbGF0ZSgyMC4wODUpIj4mI3hhOwkJCTx0aXRsZSBpZD0idGl0bGUxOTc4NzIiPnBhdGg3MTI1PC90aXRsZT4mI3hhOwkJCTxwYXRoIGlkPSJwYXRoMTk3ODc0IiBpbmtzY2FwZTpjb25uZWN0b3ItY3VydmF0dXJlPSIwIiBzdHlsZT0iZmlsbDojMjQ2QUJGOyIgZD0iTTAsMTEuOTVjMCwwLDExLjI1LDAuMTMsMTYuMzMsMCAgICAgYzEuNTItMC4wNSwzLjAzLDAuMzcsNC4zLDEuMjFjMS42NiwxLjA4LDIuNzMsMi44NiwyLjksNC44NGMwLjE5LDEuNDIsMC4wMywyLjg2LTAuNDUsNC4yYy0wLjcxLDEuODMtMi4xNiwzLjI4LTMuOTksMy45OSAgICAgYy0wLjc1LDAuMzItMS41MywwLjU1LTIuMzQsMC42OGMtMC4wOSwwLjAzLTAuMTcsMC4wNi0wLjI1LDAuMWMwLjQsMC4xMywwLjc1LDAuMjMsMS4wMywwLjM2YzIuNzEsMS4wOCwzLjQ0LDIuNzcsNC4xMyw0LjAzICAgICBjMC44NywxLjU5LDMuNTIsNi4yNCw0LjM0LDcuNjZjMCwwLjA1LDAuMDUsMC4xMSwwLjA5LDAuMmgtMC4yN2gtOC41M2MtMC4xOSwwLjAyLTAuMzctMC4xLTAuNDQtMC4yOCAgICAgYy0wLjY1LTEuMjYtMy42MS02Ljg3LTQuNDQtOC40MWMtMC4zMS0wLjY4LTAuNzgtMS4yNy0xLjM2LTEuNzRjLTAuMzYtMC4zMS0wLjc5LTAuNS0xLjI2LTAuNTZINy44M3YxMS4xNEgwVjExLjk1eiBNNy44NCwxNy44MyAgICAgdjQuNTdjMCwwLDMuNjQsMCw1LjI1LDBjMC40NiwwLjAzLDAuOTItMC4xLDEuMjktMC4zN2MwLjY2LTAuNSwxLjAxLTEuMzEsMC45NC0yLjEzYzAuMDEtMS4xNC0wLjkxLTIuMDctMi4wNS0yLjA4ICAgICBjLTAuMDcsMC0wLjE0LDAtMC4yLDAuMDFMNy44NCwxNy44M3oiLz4mI3hhOwkJPC9nPiYjeGE7CTwvZz4mI3hhOzwvZz4mI3hhOzwvc3ZnPg==;" vertex="1" parent="1">
          <mxGeometry x="50" y="1013" width="59.37" height="47" as="geometry" />
        </mxCell>
        <mxCell id="esfX10ickzwYWV4Qpk32-11" value="" style="shape=image;verticalLabelPosition=bottom;labelBackgroundColor=#ffffff;verticalAlign=top;aspect=fixed;imageAspect=0;image=data:image/svg+xml,PHN2ZyB4bWxuczpjYz0iaHR0cDovL2NyZWF0aXZlY29tbW9ucy5vcmcvbnMjIiB4bWxuczpkYz0iaHR0cDovL3B1cmwub3JnL2RjL2VsZW1lbnRzLzEuMS8iIHhtbG5zOmlua3NjYXBlPSJodHRwOi8vd3d3Lmlua3NjYXBlLm9yZy9uYW1lc3BhY2VzL2lua3NjYXBlIiB4bWxuczpyZGY9Imh0dHA6Ly93d3cudzMub3JnLzE5OTkvMDIvMjItcmRmLXN5bnRheC1ucyMiIHhtbG5zOnNvZGlwb2RpPSJodHRwOi8vc29kaXBvZGkuc291cmNlZm9yZ2UubmV0L0RURC9zb2RpcG9kaS0wLmR0ZCIgeG1sbnM6c3ZnPSJodHRwOi8vd3d3LnczLm9yZy8yMDAwL3N2ZyIgeG1sbnM9Imh0dHA6Ly93d3cudzMub3JnLzIwMDAvc3ZnIiB4bWxuczp4bGluaz0iaHR0cDovL3d3dy53My5vcmcvMTk5OS94bGluayIgdmVyc2lvbj0iMS4xIiBpZD0ic3ZnMTA4MjM0IiBpbmtzY2FwZTp2ZXJzaW9uPSIwLjkyLjMgKDI0MDU1NDYsIDIwMTgtMDMtMTEpIiBzb2RpcG9kaTpkb2NuYW1lPSJ0YWJsZXMuc3ZnIiB4PSIwcHgiIHk9IjBweCIgdmlld0JveD0iMCAwIDU4Ljc3IDUwLjI0IiBzdHlsZT0iZW5hYmxlLWJhY2tncm91bmQ6bmV3IDAgMCA1OC43NyA1MC4yNDsiIHhtbDpzcGFjZT0icHJlc2VydmUiPiYjeGE7PHNvZGlwb2RpOm5hbWVkdmlldyBib3JkZXJjb2xvcj0iIzY2NjY2NiIgYm9yZGVyb3BhY2l0eT0iMSIgZml0LW1hcmdpbi1ib3R0b209IjAiIGZpdC1tYXJnaW4tbGVmdD0iMCIgZml0LW1hcmdpbi1yaWdodD0iMCIgZml0LW1hcmdpbi10b3A9IjAiIGdyaWR0b2xlcmFuY2U9IjEwIiBndWlkZXRvbGVyYW5jZT0iMTAiIGlkPSJuYW1lZHZpZXcxMDgyMzYiIGlua3NjYXBlOmN1cnJlbnQtbGF5ZXI9InN2ZzEwODIzNCIgaW5rc2NhcGU6Y3g9IjM5LjE3ODcwNSIgaW5rc2NhcGU6Y3k9IjMzLjQ5MjU3NSIgaW5rc2NhcGU6cGFnZW9wYWNpdHk9IjAiIGlua3NjYXBlOnBhZ2VzaGFkb3c9IjIiIGlua3NjYXBlOndpbmRvdy1oZWlnaHQ9IjEwMTciIGlua3NjYXBlOndpbmRvdy1tYXhpbWl6ZWQ9IjEiIGlua3NjYXBlOndpbmRvdy13aWR0aD0iMTkyMCIgaW5rc2NhcGU6d2luZG93LXg9Ii04IiBpbmtzY2FwZTp3aW5kb3cteT0iLTgiIGlua3NjYXBlOnpvb209IjEyLjk0MjU3MyIgb2JqZWN0dG9sZXJhbmNlPSIxMCIgcGFnZWNvbG9yPSIjZmZmZmZmIiBzaG93Z3JpZD0iZmFsc2UiPiYjeGE7CTwvc29kaXBvZGk6bmFtZWR2aWV3PiYjeGE7PGcgaWQ9ImcxMDgyMzIiIHRyYW5zZm9ybT0idHJhbnNsYXRlKDAsMC4wMDMzNDUzMSkiPiYjeGE7CTx0aXRsZSBpZD0idGl0bGUxMDgwNzciPlBhZ2UtMTwvdGl0bGU+JiN4YTsJPGcgaWQ9Imdyb3VwMzg5OC0xIj4mI3hhOwkJPHRpdGxlIGlkPSJ0aXRsZTEwODA3OSI+VGFibGVzPC90aXRsZT4mI3hhOwkJPGcgaWQ9InNoYXBlMzg5OS0yIj4mI3hhOwkJCTx0aXRsZSBpZD0idGl0bGUxMDgwODEiPlNoZWV0LjM4OTk8L3RpdGxlPiYjeGE7CQkJPHBhdGggaWQ9InBhdGgxMDgwODMiIGlua3NjYXBlOmNvbm5lY3Rvci1jdXJ2YXR1cmU9IjAiIHN0eWxlPSJmaWxsOiNFMEUwRTA7IiBkPSJNMCw0Ny45OGMwLDEuMzQsMC45NiwyLjI2LDIuMTQsMi4yNiAgICAgYzU0LjQxLDAsNTQuNDEsMCw1NC40MSwwYzEuMywwLDIuMjItMC45MiwyLjIyLTIuMjZjMC0zOS40LDAtMzkuNCwwLTM5LjRDMCw4LjU4LDAsOC41OCwwLDguNThDMCw0Ny45OCwwLDQ3Ljk4LDAsNDcuOTh6Ii8+JiN4YTsJCTwvZz4mI3hhOwkJPGcgaWQ9InNoYXBlMzkwMC00IiB0cmFuc2Zvcm09InRyYW5zbGF0ZSgwLC00MS42NjM0KSI+JiN4YTsJCQk8dGl0bGUgaWQ9InRpdGxlMTA4MDg2Ij5TaGVldC4zOTAwPC90aXRsZT4mI3hhOwkJCTxwYXRoIGlkPSJwYXRoMTA4MDg4IiBpbmtzY2FwZTpjb25uZWN0b3ItY3VydmF0dXJlPSIwIiBzdHlsZT0iZmlsbDojOERDNjNGOyIgZD0iTTU2LjY2LDQxLjY2Yy01NC41MiwwLTU0LjUyLDAtNTQuNTIsMCAgICAgQzAuOTYsNDEuNjYsMCw0Mi43LDAsNDMuODFjMCw2LjQzLDAsNi40MywwLDYuNDNjNTguNzcsMCw1OC43NywwLDU4Ljc3LDBjMC02LjQzLDAtNi40MywwLTYuNDMgICAgIEM1OC43Nyw0Mi43LDU3Ljg1LDQxLjY2LDU2LjY2LDQxLjY2eiIvPiYjeGE7CQk8L2c+JiN4YTsJCTxnIGlkPSJzaGFwZTM5MDEtNiIgdHJhbnNmb3JtPSJ0cmFuc2xhdGUoMTcuMTQwNywtMjIuMDU3MSkiPiYjeGE7CQkJPHRpdGxlIGlkPSJ0aXRsZTEwODA5MSI+U2hlZXQuMzkwMTwvdGl0bGU+JiN4YTsJCQk8cGF0aCBpZD0icGF0aDEwODA5MyIgaW5rc2NhcGU6Y29ubmVjdG9yLWN1cnZhdHVyZT0iMCIgc3R5bGU9ImZpbGw6I0ZGRkZGRjsiIGQ9Ik0wLDQzLjV2Ni43NGgxMS4wMlY0My41SDB6Ii8+JiN4YTsJCTwvZz4mI3hhOwkJPGcgaWQ9InNoYXBlMzkwMi04IiB0cmFuc2Zvcm09InRyYW5zbGF0ZSgxNy4xNDA3LC0zMC42MzQ4KSI+JiN4YTsJCQk8dGl0bGUgaWQ9InRpdGxlMTA4MDk2Ij5TaGVldC4zOTAyPC90aXRsZT4mI3hhOwkJCTxwYXRoIGlkPSJwYXRoMTA4MDk4IiBpbmtzY2FwZTpjb25uZWN0b3ItY3VydmF0dXJlPSIwIiBzdHlsZT0iZmlsbDojRkZGRkZGOyIgZD0iTTAsNDMuNXY2Ljc0aDExLjAyVjQzLjVIMHoiLz4mI3hhOwkJPC9nPiYjeGE7CQk8ZyBpZD0ic2hhcGUzOTAzLTEwIiB0cmFuc2Zvcm09InRyYW5zbGF0ZSgxNy4xNDA3LC0xMy40NzkzKSI+JiN4YTsJCQk8dGl0bGUgaWQ9InRpdGxlMTA4MTAxIj5TaGVldC4zOTAzPC90aXRsZT4mI3hhOwkJCTxwYXRoIGlkPSJwYXRoMTA4MTAzIiBpbmtzY2FwZTpjb25uZWN0b3ItY3VydmF0dXJlPSIwIiBzdHlsZT0iZmlsbDojRkZGRkZGOyIgZD0iTTAsNDQuMTF2Ni4xM2gxMS4wMnYtNi4xM0gweiIvPiYjeGE7CQk8L2c+JiN4YTsJCTxnIGlkPSJzaGFwZTM5MDQtMTIiIHRyYW5zZm9ybT0idHJhbnNsYXRlKDMwLjYwODQsLTEzLjQ3OTMpIj4mI3hhOwkJCTx0aXRsZSBpZD0idGl0bGUxMDgxMDYiPlNoZWV0LjM5MDQ8L3RpdGxlPiYjeGE7CQkJPHBhdGggaWQ9InBhdGgxMDgxMDgiIGlua3NjYXBlOmNvbm5lY3Rvci1jdXJ2YXR1cmU9IjAiIHN0eWxlPSJmaWxsOiNGRkZGRkY7IiBkPSJNMCw0NC4xMXY2LjEzaDExLjAydi02LjEzSDB6Ii8+JiN4YTsJCTwvZz4mI3hhOwkJPGcgaWQ9InNoYXBlMzkwNS0xNCIgdHJhbnNmb3JtPSJ0cmFuc2xhdGUoMzAuNjA4NCwtMjIuMDU3MSkiPiYjeGE7CQkJPHRpdGxlIGlkPSJ0aXRsZTEwODExMSI+U2hlZXQuMzkwNTwvdGl0bGU+JiN4YTsJCQk8cGF0aCBpZD0icGF0aDEwODExMyIgaW5rc2NhcGU6Y29ubmVjdG9yLWN1cnZhdHVyZT0iMCIgc3R5bGU9ImZpbGw6I0ZGRkZGRjsiIGQ9Ik0wLDQzLjV2Ni43NGgxMS4wMlY0My41SDB6Ii8+JiN4YTsJCTwvZz4mI3hhOwkJPGcgaWQ9InNoYXBlMzkwNi0xNiIgdHJhbnNmb3JtPSJ0cmFuc2xhdGUoMzAuNjA4NCwtMzAuNjM0OCkiPiYjeGE7CQkJPHRpdGxlIGlkPSJ0aXRsZTEwODExNiI+U2hlZXQuMzkwNjwvdGl0bGU+JiN4YTsJCQk8cGF0aCBpZD0icGF0aDEwODExOCIgaW5rc2NhcGU6Y29ubmVjdG9yLWN1cnZhdHVyZT0iMCIgc3R5bGU9ImZpbGw6IzkyRDA1MDsiIGQ9Ik0wLDQzLjV2Ni43NGgxMS4wMlY0My41SDB6Ii8+JiN4YTsJCTwvZz4mI3hhOwkJPGcgaWQ9InNoYXBlMzkwNy0xOCIgdHJhbnNmb3JtPSJ0cmFuc2xhdGUoNC4yODUxNywtMzAuNjM0OCkiPiYjeGE7CQkJPHRpdGxlIGlkPSJ0aXRsZTEwODEyMSI+U2hlZXQuMzkwNzwvdGl0bGU+JiN4YTsJCQk8cGF0aCBpZD0icGF0aDEwODEyMyIgaW5rc2NhcGU6Y29ubmVjdG9yLWN1cnZhdHVyZT0iMCIgc3R5bGU9ImZpbGw6I0ZGRkZGRjsiIGQ9Ik0wLDQzLjV2Ni43NGgxMS4wMlY0My41SDB6Ii8+JiN4YTsJCTwvZz4mI3hhOwkJPGcgaWQ9InNoYXBlMzkwOC0yMCIgdHJhbnNmb3JtPSJ0cmFuc2xhdGUoNC4yODUxNywtMjIuMDU3MSkiPiYjeGE7CQkJPHRpdGxlIGlkPSJ0aXRsZTEwODEyNiI+U2hlZXQuMzkwODwvdGl0bGU+JiN4YTsJCQk8cGF0aCBpZD0icGF0aDEwODEyOCIgaW5rc2NhcGU6Y29ubmVjdG9yLWN1cnZhdHVyZT0iMCIgc3R5bGU9ImZpbGw6I0ZGRkZGRjsiIGQ9Ik0wLDQzLjV2Ni43NGgxMS4wMlY0My41SDB6Ii8+JiN4YTsJCTwvZz4mI3hhOwkJPGcgaWQ9InNoYXBlMzkwOS0yMiIgdHJhbnNmb3JtPSJ0cmFuc2xhdGUoNC4yODUxNywtMTMuNDc5MykiPiYjeGE7CQkJPHRpdGxlIGlkPSJ0aXRsZTEwODEzMSI+U2hlZXQuMzkwOTwvdGl0bGU+JiN4YTsJCQk8cGF0aCBpZD0icGF0aDEwODEzMyIgaW5rc2NhcGU6Y29ubmVjdG9yLWN1cnZhdHVyZT0iMCIgc3R5bGU9ImZpbGw6IzhEQzYzRjsiIGQ9Ik0wLDQ0LjExdjYuMTNoMTEuMDJ2LTYuMTNIMHoiLz4mI3hhOwkJPC9nPiYjeGE7CQk8ZyBpZD0ic2hhcGUzOTEwLTI0IiB0cmFuc2Zvcm09InRyYW5zbGF0ZSg0LjI4NTE3LC00LjI4ODg4KSI+JiN4YTsJCQk8dGl0bGUgaWQ9InRpdGxlMTA4MTM2Ij5TaGVldC4zOTEwPC90aXRsZT4mI3hhOwkJCTxwYXRoIGlkPSJwYXRoMTA4MTM4IiBpbmtzY2FwZTpjb25uZWN0b3ItY3VydmF0dXJlPSIwIiBzdHlsZT0iZmlsbDojRkZGRkZGOyIgZD0iTTAsNDMuNXY2Ljc0aDExLjAyVjQzLjVIMHoiLz4mI3hhOwkJPC9nPiYjeGE7CQk8ZyBpZD0ic2hhcGUzOTExLTI2IiB0cmFuc2Zvcm09InRyYW5zbGF0ZSgxNy4xNDA3LC00LjI4ODg4KSI+JiN4YTsJCQk8dGl0bGUgaWQ9InRpdGxlMTA4MTQxIj5TaGVldC4zOTExPC90aXRsZT4mI3hhOwkJCTxwYXRoIGlkPSJwYXRoMTA4MTQzIiBpbmtzY2FwZTpjb25uZWN0b3ItY3VydmF0dXJlPSIwIiBzdHlsZT0iZmlsbDojRkZGRkZGOyIgZD0iTTAsNDMuNXY2Ljc0aDExLjAyVjQzLjVIMHoiLz4mI3hhOwkJPC9nPiYjeGE7CQk8ZyBpZD0ic2hhcGUzOTEyLTI4IiB0cmFuc2Zvcm09InRyYW5zbGF0ZSgzMC42MDg0LC00LjI4ODg4KSI+JiN4YTsJCQk8dGl0bGUgaWQ9InRpdGxlMTA4MTQ2Ij5TaGVldC4zOTEyPC90aXRsZT4mI3hhOwkJCTxwYXRoIGlkPSJwYXRoMTA4MTQ4IiBpbmtzY2FwZTpjb25uZWN0b3ItY3VydmF0dXJlPSIwIiBzdHlsZT0iZmlsbDojRkZGRkZGOyIgZD0iTTAsNDMuNXY2Ljc0aDExLjAyVjQzLjVIMHoiLz4mI3hhOwkJPC9nPiYjeGE7CQk8ZyBpZD0ic2hhcGUzOTEzLTMwIiB0cmFuc2Zvcm09InRyYW5zbGF0ZSg0My40NjM5LC0xMy40NzkzKSI+JiN4YTsJCQk8dGl0bGUgaWQ9InRpdGxlMTA4MTUxIj5TaGVldC4zOTEzPC90aXRsZT4mI3hhOwkJCTxwYXRoIGlkPSJwYXRoMTA4MTUzIiBpbmtzY2FwZTpjb25uZWN0b3ItY3VydmF0dXJlPSIwIiBzdHlsZT0iZmlsbDojRkZGRkZGOyIgZD0iTTAsNDQuMTF2Ni4xM2gxMS4wMnYtNi4xM0gweiIvPiYjeGE7CQk8L2c+JiN4YTsJCTxnIGlkPSJzaGFwZTM5MTQtMzIiIHRyYW5zZm9ybT0idHJhbnNsYXRlKDQzLjQ2MzksLTIyLjA1NzEpIj4mI3hhOwkJCTx0aXRsZSBpZD0idGl0bGUxMDgxNTYiPlNoZWV0LjM5MTQ8L3RpdGxlPiYjeGE7CQkJPHBhdGggaWQ9InBhdGgxMDgxNTgiIGlua3NjYXBlOmNvbm5lY3Rvci1jdXJ2YXR1cmU9IjAiIHN0eWxlPSJmaWxsOiNGRkZGRkY7IiBkPSJNMCw0My41djYuNzRoMTEuMDJWNDMuNUgweiIvPiYjeGE7CQk8L2c+JiN4YTsJCTxnIGlkPSJzaGFwZTM5MTUtMzQiIHRyYW5zZm9ybT0idHJhbnNsYXRlKDQzLjQ2MzksLTMwLjYzNDgpIj4mI3hhOwkJCTx0aXRsZSBpZD0idGl0bGUxMDgxNjEiPlNoZWV0LjM5MTU8L3RpdGxlPiYjeGE7CQkJPHBhdGggaWQ9InBhdGgxMDgxNjMiIGlua3NjYXBlOmNvbm5lY3Rvci1jdXJ2YXR1cmU9IjAiIHN0eWxlPSJmaWxsOiM5MkQwNTA7IiBkPSJNMCw0My41djYuNzRoMTEuMDJWNDMuNUgweiIvPiYjeGE7CQk8L2c+JiN4YTsJCTxnIGlkPSJzaGFwZTM5MTYtMzYiIHRyYW5zZm9ybT0idHJhbnNsYXRlKDQzLjQ2MzksLTQuMjg4ODgpIj4mI3hhOwkJCTx0aXRsZSBpZD0idGl0bGUxMDgxNjYiPlNoZWV0LjM5MTY8L3RpdGxlPiYjeGE7CQkJPHBhdGggaWQ9InBhdGgxMDgxNjgiIGlua3NjYXBlOmNvbm5lY3Rvci1jdXJ2YXR1cmU9IjAiIHN0eWxlPSJmaWxsOiNGRkZGRkY7IiBkPSJNMCw0My41djYuNzRoMTEuMDJWNDMuNUgweiIvPiYjeGE7CQk8L2c+JiN4YTsJCTxnIGlkPSJzaGFwZTM5MTctMzgiIHRyYW5zZm9ybT0idHJhbnNsYXRlKDEuODM2NSkiPiYjeGE7CQkJPHRpdGxlIGlkPSJ0aXRsZTEwODE3MSI+U2hlZXQuMzkxNzwvdGl0bGU+JiN4YTsJCQk8cGF0aCBpZD0icGF0aDEwODE3MyIgaW5rc2NhcGU6Y29ubmVjdG9yLWN1cnZhdHVyZT0iMCIgc3R5bGU9ImZpbGw6IzFDNDI3RjsiIGQ9Ik0wLjE1LDUwLjI0YzAuMTIsMCwwLjIzLDAsMC40NiwwICAgICBjMi40OSwwLDIuNDksMCwyLjQ5LDBjMC4xMSwwLDAuMTEsMCwwLjExLDBjLTIuODMsMC0yLjgzLDAtMi44MywwQzAuMjcsNTAuMjQsMC4yNyw1MC4yNCwwLjE1LDUwLjI0eiBNNDkuNTksMCAgICAgQzAuNjEsMCwwLjYxLDAsMC42MSwwQzAuMzgsMCwwLjI3LDAsMCwwLjE1QzAuMTUsMC4xNSwwLjI3LDAsMC4zOCwwQzQ5LjU5LDAsNDkuNTksMCw0OS41OSwwTDQ5LjU5LDB6Ii8+JiN4YTsJCTwvZz4mI3hhOwkJPGcgaWQ9InNoYXBlMzkxOC00MCI+JiN4YTsJCQk8dGl0bGUgaWQ9InRpdGxlMTA4MTc2Ij5TaGVldC4zOTE4PC90aXRsZT4mI3hhOwkJCTxwYXRoIGlkPSJwYXRoMTA4MTc4IiBpbmtzY2FwZTpjb25uZWN0b3ItY3VydmF0dXJlPSIwIiBzdHlsZT0iZmlsbDojRTNFM0UzOyIgZD0iTTQuMzYsMzcuMDNjMC02LjY2LDAtNi42NiwwLTYuNjYgICAgIGMxMC43OSwwLDEwLjc5LDAsMTAuNzksMGMwLDYuNjYsMCw2LjY2LDAsNi42NkM0LjM2LDM3LjAzLDQuMzYsMzcuMDMsNC4zNiwzNy4wM3ogTTQuMzYsMjguMjJjMC02LjY2LDAtNi42NiwwLTYuNjYgICAgIGMxMC43OSwwLDEwLjc5LDAsMTAuNzksMGMwLDYuNjYsMCw2LjY2LDAsNi42NkM0LjM2LDI4LjIyLDQuMzYsMjguMjIsNC4zNiwyOC4yMnogTTQuMzYsMTkuNDFjMC02LjY2LDAtNi42NiwwLTYuNjYgICAgIGMxMC43OSwwLDEwLjc5LDAsMTAuNzksMGMwLDYuNjYsMCw2LjY2LDAsNi42NkM0LjM2LDE5LjQxLDQuMzYsMTkuNDEsNC4zNiwxOS40MXogTTE3LjQxLDE5LjQxYzAtNi42NiwwLTYuNjYsMC02LjY2ICAgICBjMTAuNzksMCwxMC43OSwwLDEwLjc5LDBjMCw2LjY2LDAsNi42NiwwLDYuNjZDMTcuNDEsMTkuNDEsMTcuNDEsMTkuNDEsMTcuNDEsMTkuNDF6IE00Mi44NSw4LjU4QzAsOC41OCwwLDguNTgsMCw4LjU4ICAgICBjMCwyLjAzLDAsMi4wMywwLDIuMDNjMCwzLjk0LDAsMy45NCwwLDMuOTRjMCwzMy4zMiwwLDMzLjMyLDAsMzMuMzJjMCwxLjE4LDAuODQsMi4xNCwxLjkxLDIuMzdjMC4xMiwwLDAuMTIsMCwwLjIzLDAgICAgIGMyLjgsMCwyLjgsMCwyLjgsMGM0LjAxLTQuNCw0LjAxLTQuNCw0LjAxLTQuNGMtNC41OSwwLTQuNTksMC00LjU5LDBjMC02LjY3LDAtNi42NywwLTYuNjdjMTAuNTYsMCwxMC41NiwwLDEwLjU2LDAgICAgIGMyLjQ5LTIuNiwyLjQ5LTIuNiwyLjQ5LTIuNmMwLTYuMiwwLTYuMiwwLTYuMmM1LjYyLDAsNS42MiwwLDUuNjIsMGMxLjk5LTIuMTUsMS45OS0yLjE1LDEuOTktMi4xNWMtNy42MSwwLTcuNjEsMC03LjYxLDAgICAgIGMwLTYuNjYsMC02LjY2LDAtNi42NmMxMC43OSwwLDEwLjc5LDAsMTAuNzksMGMwLDMuMSwwLDMuMSwwLDMuMWMyLjIyLTIuMzcsMi4yMi0yLjM3LDIuMjItMi4zN2MwLTAuNzMsMC0wLjczLDAtMC43MyAgICAgYzAuNjEsMCwwLjYxLDAsMC42MSwwYzEuOTktMi4xNSwxLjk5LTIuMTUsMS45OS0yLjE1Yy0yLjYsMC0yLjYsMC0yLjYsMGMwLTYuNjYsMC02LjY2LDAtNi42NmM4LjU3LDAsOC41NywwLDguNTcsMCAgICAgQzQyLjg1LDguNTgsNDIuODUsOC41OCw0Mi44NSw4LjU4eiIvPiYjeGE7CQk8L2c+JiN4YTsJCTxnIGlkPSJzaGFwZTM5MTktNDIiIHRyYW5zZm9ybT0idHJhbnNsYXRlKDAsLTQxLjY2MzQpIj4mI3hhOwkJCTx0aXRsZSBpZD0idGl0bGUxMDgxODEiPlNoZWV0LjM5MTk8L3RpdGxlPiYjeGE7CQkJPHBhdGggaWQ9InBhdGgxMDgxODMiIGlua3NjYXBlOmNvbm5lY3Rvci1jdXJ2YXR1cmU9IjAiIHN0eWxlPSJmaWxsOiM5OUNDNTM7IiBkPSJNNTEuNDIsNDEuNjZjLTQ5LjI4LDAtNDkuMjgsMC00OS4yOCwwICAgICBjLTAuMTEsMC0wLjIzLDAuMTItMC4zNCwwLjEyQzAuNzMsNDIuMDEsMCw0Mi45MywwLDQzLjkyYzAsNi4zMiwwLDYuMzIsMCw2LjMyYzQzLjE2LDAsNDMuMTYsMCw0My4xNiwwICAgICBDNTEuNDIsNDEuNjYsNTEuNDIsNDEuNjYsNTEuNDIsNDEuNjZ6Ii8+JiN4YTsJCTwvZz4mI3hhOwkJPGcgaWQ9InNoYXBlMzkyMC00NCIgdHJhbnNmb3JtPSJ0cmFuc2xhdGUoMTcuMTQwNywtMjIuMDU3MSkiPiYjeGE7CQkJPHRpdGxlIGlkPSJ0aXRsZTEwODE4NiI+U2hlZXQuMzkyMDwvdGl0bGU+JiN4YTsJCQk8cGF0aCBpZD0icGF0aDEwODE4OCIgaW5rc2NhcGU6Y29ubmVjdG9yLWN1cnZhdHVyZT0iMCIgc3R5bGU9ImZpbGw6I0ZGRkZGRjsiIGQ9Ik0xMS4wMiw0My41SDB2Ni43NGg3LjgxbDMuMjEtMy42VjQzLjV6Ii8+JiN4YTsJCTwvZz4mI3hhOwkJPGcgaWQ9InNoYXBlMzkyMS00NiIgdHJhbnNmb3JtPSJ0cmFuc2xhdGUoMTcuMTQwNywtMzAuNjM0OCkiPiYjeGE7CQkJPHRpdGxlIGlkPSJ0aXRsZTEwODE5MSI+U2hlZXQuMzkyMTwvdGl0bGU+JiN4YTsJCQk8cGF0aCBpZD0icGF0aDEwODE5MyIgaW5rc2NhcGU6Y29ubmVjdG9yLWN1cnZhdHVyZT0iMCIgc3R5bGU9ImZpbGw6IzkyRDA1MDsiIGQ9Ik0wLDQzLjV2Ni43NGgxMS4wMlY0My41SDB6Ii8+JiN4YTsJCTwvZz4mI3hhOwkJPGcgaWQ9InNoYXBlMzkyMi00OCIgdHJhbnNmb3JtPSJ0cmFuc2xhdGUoMTcuMTQwNywtMTMuNDc5MykiPiYjeGE7CQkJPHRpdGxlIGlkPSJ0aXRsZTEwODE5NiI+U2hlZXQuMzkyMjwvdGl0bGU+JiN4YTsJCQk8cGF0aCBpZD0icGF0aDEwODE5OCIgaW5rc2NhcGU6Y29ubmVjdG9yLWN1cnZhdHVyZT0iMCIgc3R5bGU9ImZpbGw6I0ZGRkZGRjsiIGQ9Ik02LjEyLDQ0LjExSDB2Ni4xM0w2LjEyLDQ0LjExeiIvPiYjeGE7CQk8L2c+JiN4YTsJCTxnIGlkPSJzaGFwZTM5MjMtNTAiIHRyYW5zZm9ybT0idHJhbnNsYXRlKDMwLjYwODQsLTI3LjU3MTQpIj4mI3hhOwkJCTx0aXRsZSBpZD0idGl0bGUxMDgyMDEiPlNoZWV0LjM5MjM8L3RpdGxlPiYjeGE7CQkJPHBhdGggaWQ9InBhdGgxMDgyMDMiIGlua3NjYXBlOmNvbm5lY3Rvci1jdXJ2YXR1cmU9IjAiIHN0eWxlPSJmaWxsOiNGRkZGRkY7IiBkPSJNMC42MSw0OS4wMkgwdjEuMjJMMC42MSw0OS4wMnoiLz4mI3hhOwkJPC9nPiYjeGE7CQk8ZyBpZD0ic2hhcGUzOTI0LTUyIiB0cmFuc2Zvcm09InRyYW5zbGF0ZSgzMC42MDg0LC0zMC42MzQ4KSI+JiN4YTsJCQk8dGl0bGUgaWQ9InRpdGxlMTA4MjA2Ij5TaGVldC4zOTI0PC90aXRsZT4mI3hhOwkJCTxwYXRoIGlkPSJwYXRoMTA4MjA4IiBpbmtzY2FwZTpjb25uZWN0b3ItY3VydmF0dXJlPSIwIiBzdHlsZT0iZmlsbDojOTJEMDUwOyIgZD0iTTguNTcsNDMuNUgwdjYuNzRoMi42NEw4LjU3LDQzLjV6Ii8+JiN4YTsJCTwvZz4mI3hhOwkJPGcgaWQ9InNoYXBlMzkyNS01NCIgdHJhbnNmb3JtPSJ0cmFuc2xhdGUoNC4yODUxNywtMzAuNjM0OCkiPiYjeGE7CQkJPHRpdGxlIGlkPSJ0aXRsZTEwODIxMSI+U2hlZXQuMzkyNTwvdGl0bGU+JiN4YTsJCQk8cGF0aCBpZD0icGF0aDEwODIxMyIgaW5rc2NhcGU6Y29ubmVjdG9yLWN1cnZhdHVyZT0iMCIgc3R5bGU9ImZpbGw6IzkyRDA1MDsiIGQ9Ik0wLDQzLjV2Ni43NGgxMS4wMlY0My41SDB6Ii8+JiN4YTsJCTwvZz4mI3hhOwkJPGcgaWQ9InNoYXBlMzkyNi01NiIgdHJhbnNmb3JtPSJ0cmFuc2xhdGUoNC4yODUxNywtMjIuMDU3MSkiPiYjeGE7CQkJPHRpdGxlIGlkPSJ0aXRsZTEwODIxNiI+U2hlZXQuMzkyNjwvdGl0bGU+JiN4YTsJCQk8cGF0aCBpZD0icGF0aDEwODIxOCIgaW5rc2NhcGU6Y29ubmVjdG9yLWN1cnZhdHVyZT0iMCIgc3R5bGU9ImZpbGw6I0ZGRkZGRjsiIGQ9Ik0wLDQzLjV2Ni43NGgxMS4wMlY0My41SDB6Ii8+JiN4YTsJCTwvZz4mI3hhOwkJPGcgaWQ9InNoYXBlMzkyNy01OCIgdHJhbnNmb3JtPSJ0cmFuc2xhdGUoNC4yODUxNywtMTMuNDc5MykiPiYjeGE7CQkJPHRpdGxlIGlkPSJ0aXRsZTEwODIyMSI+U2hlZXQuMzkyNzwvdGl0bGU+JiN4YTsJCQk8cGF0aCBpZD0icGF0aDEwODIyMyIgaW5rc2NhcGU6Y29ubmVjdG9yLWN1cnZhdHVyZT0iMCIgc3R5bGU9ImZpbGw6I0ZGRkZGRjsiIGQ9Ik0wLDQ0LjExdjYuMTNoMTEuMDJ2LTYuMTNIMHoiLz4mI3hhOwkJPC9nPiYjeGE7CQk8ZyBpZD0ic2hhcGUzOTI4LTYwIiB0cmFuc2Zvcm09InRyYW5zbGF0ZSg0LjIxODc1LC00LjI4ODg4KSI+JiN4YTsJCQk8dGl0bGUgaWQ9InRpdGxlMTA4MjI2Ij5TaGVldC4zOTI4PC90aXRsZT4mI3hhOwkJCTxwYXRoIGlkPSJwYXRoMTA4MjI4IiBpbmtzY2FwZTpjb25uZWN0b3ItY3VydmF0dXJlPSIwIiBzdHlsZT0iZmlsbDojRkZGRkZGOyIgZD0iTTEwLjQxLDQzLjVIMHY2Ljc0aDQuNTFMMTAuNDEsNDMuNXoiLz4mI3hhOwkJPC9nPiYjeGE7CTwvZz4mI3hhOzwvZz4mI3hhOzwvc3ZnPg==;" vertex="1" parent="1">
          <mxGeometry x="1030" y="871" width="109" height="92.37" as="geometry" />
        </mxCell>
        <mxCell id="esfX10ickzwYWV4Qpk32-13" value="&lt;font style=&quot;font-size: 28px;&quot;&gt;Soil Data&lt;/font&gt;" style="text;strokeColor=none;align=center;fillColor=none;html=1;verticalAlign=middle;whiteSpace=wrap;rounded=0;fontSize=21;" vertex="1" parent="1">
          <mxGeometry x="1024.5" y="705" width="180" height="60" as="geometry" />
        </mxCell>
        <mxCell id="esfX10ickzwYWV4Qpk32-14" value="Static profile properties" style="text;strokeColor=none;align=center;fillColor=none;html=1;verticalAlign=middle;whiteSpace=wrap;rounded=0;fontSize=21;" vertex="1" parent="1">
          <mxGeometry x="964.5" y="838" width="250" height="30" as="geometry" />
        </mxCell>
        <mxCell id="esfX10ickzwYWV4Qpk32-50" value="" style="group;fontSize=12;" vertex="1" connectable="0" parent="1">
          <mxGeometry x="834.5" y="750" width="100" height="290" as="geometry" />
        </mxCell>
        <mxCell id="esfX10ickzwYWV4Qpk32-15" value="" style="line;strokeWidth=10;direction=south;html=1;fillColor=none;fontSize=13;fontColor=#000000;align=center;strokeColor=#AE4132;" vertex="1" parent="esfX10ickzwYWV4Qpk32-50">
          <mxGeometry x="9.09090909090909" width="4.545454545454545" height="261.6384615384615" as="geometry" />
        </mxCell>
        <mxCell id="esfX10ickzwYWV4Qpk32-18" value="" style="rounded=1;whiteSpace=wrap;html=1;strokeColor=none;strokeWidth=1;fillColor=#10739E;fontSize=6;fontColor=#FFFFFF;align=center;gradientColor=none;gradientDirection=east;verticalAlign=top;shadow=1;" vertex="1" parent="esfX10ickzwYWV4Qpk32-50">
          <mxGeometry y="0.8692307692307693" width="99.99999999999999" height="29.553846153846155" as="geometry" />
        </mxCell>
        <mxCell id="esfX10ickzwYWV4Qpk32-19" value="2" style="text;html=1;strokeColor=none;fillColor=none;align=center;verticalAlign=middle;whiteSpace=wrap;fontSize=6;fontColor=#FFFFFF;" vertex="1" parent="esfX10ickzwYWV4Qpk32-50">
          <mxGeometry x="4.545454545454545" y="12.343076923076923" width="18.18181818181818" height="6.953846153846154" as="geometry" />
        </mxCell>
        <mxCell id="esfX10ickzwYWV4Qpk32-27" value="&lt;h1&gt;SOC&lt;/h1&gt;value, date" style="text;html=1;spacing=5;spacingTop=-20;whiteSpace=wrap;overflow=hidden;strokeColor=none;strokeWidth=4;fillColor=none;gradientColor=#007FFF;fontSize=6;fontColor=#FFFFFF;align=center;" vertex="1" parent="esfX10ickzwYWV4Qpk32-50">
          <mxGeometry x="27.272727272727273" y="2.26" width="72.72727272727272" height="26.77230769230769" as="geometry" />
        </mxCell>
        <mxCell id="esfX10ickzwYWV4Qpk32-34" value="" style="rounded=1;whiteSpace=wrap;html=1;strokeColor=none;strokeWidth=1;fillColor=#10739E;fontSize=13;fontColor=#FFFFFF;align=center;gradientColor=none;gradientDirection=east;verticalAlign=top;shadow=1;" vertex="1" parent="esfX10ickzwYWV4Qpk32-50">
          <mxGeometry y="206.35538461538462" width="99.99999999999999" height="29.553846153846155" as="geometry" />
        </mxCell>
        <mxCell id="esfX10ickzwYWV4Qpk32-35" value="&lt;h1&gt;&lt;font style=&quot;font-size: 20px;&quot;&gt;...&lt;/font&gt;&lt;/h1&gt;&lt;font style=&quot;font-size: 20px;&quot;&gt;&lt;br&gt;&lt;/font&gt;" style="text;html=1;spacing=5;spacingTop=-20;whiteSpace=wrap;overflow=hidden;strokeColor=none;strokeWidth=4;fillColor=none;gradientColor=#007FFF;fontSize=9;fontColor=#FFFFFF;align=center;" vertex="1" parent="esfX10ickzwYWV4Qpk32-50">
          <mxGeometry x="13.636363636363637" y="214.70000000000002" width="72.72727272727272" height="12.864615384615385" as="geometry" />
        </mxCell>
        <mxCell id="esfX10ickzwYWV4Qpk32-36" value="" style="edgeStyle=none;orthogonalLoop=1;jettySize=auto;html=1;rounded=0;strokeWidth=10;" edge="1" parent="esfX10ickzwYWV4Qpk32-50">
          <mxGeometry width="80" relative="1" as="geometry">
            <mxPoint x="11.363636363636363" y="265.1153846153846" as="sourcePoint" />
            <mxPoint x="11.363636363636363" y="279.0230769230769" as="targetPoint" />
            <Array as="points" />
          </mxGeometry>
        </mxCell>
        <mxCell id="esfX10ickzwYWV4Qpk32-37" value="Time (daily)" style="text;strokeColor=none;align=center;fillColor=none;html=1;verticalAlign=middle;whiteSpace=wrap;rounded=0;fontSize=14;" vertex="1" parent="esfX10ickzwYWV4Qpk32-50">
          <mxGeometry x="50" y="272.07" width="27.27" height="17.93" as="geometry" />
        </mxCell>
        <mxCell id="esfX10ickzwYWV4Qpk32-41" value="" style="rounded=1;whiteSpace=wrap;html=1;strokeColor=none;strokeWidth=1;fillColor=#10739E;fontSize=6;fontColor=#FFFFFF;align=center;gradientColor=none;gradientDirection=east;verticalAlign=top;shadow=1;" vertex="1" parent="esfX10ickzwYWV4Qpk32-50">
          <mxGeometry y="52.15384615384615" width="99.99999999999999" height="29.553846153846155" as="geometry" />
        </mxCell>
        <mxCell id="esfX10ickzwYWV4Qpk32-42" value="2" style="text;html=1;strokeColor=none;fillColor=none;align=center;verticalAlign=middle;whiteSpace=wrap;fontSize=6;fontColor=#FFFFFF;" vertex="1" parent="esfX10ickzwYWV4Qpk32-50">
          <mxGeometry x="4.545454545454545" y="63.6276923076923" width="18.18181818181818" height="6.953846153846154" as="geometry" />
        </mxCell>
        <mxCell id="esfX10ickzwYWV4Qpk32-43" value="&lt;h1&gt;SOC&lt;/h1&gt;value, date" style="text;html=1;spacing=5;spacingTop=-20;whiteSpace=wrap;overflow=hidden;strokeColor=none;strokeWidth=4;fillColor=none;gradientColor=#007FFF;fontSize=6;fontColor=#FFFFFF;align=center;" vertex="1" parent="esfX10ickzwYWV4Qpk32-50">
          <mxGeometry x="27.272727272727273" y="53.54461538461538" width="72.72727272727272" height="26.77230769230769" as="geometry" />
        </mxCell>
        <mxCell id="esfX10ickzwYWV4Qpk32-44" value="" style="rounded=1;whiteSpace=wrap;html=1;strokeColor=none;strokeWidth=1;fillColor=#10739E;fontSize=6;fontColor=#FFFFFF;align=center;gradientColor=none;gradientDirection=east;verticalAlign=top;shadow=1;" vertex="1" parent="esfX10ickzwYWV4Qpk32-50">
          <mxGeometry y="96.31076923076922" width="99.99999999999999" height="29.553846153846155" as="geometry" />
        </mxCell>
        <mxCell id="esfX10ickzwYWV4Qpk32-45" value="2" style="text;html=1;strokeColor=none;fillColor=none;align=center;verticalAlign=middle;whiteSpace=wrap;fontSize=6;fontColor=#FFFFFF;" vertex="1" parent="esfX10ickzwYWV4Qpk32-50">
          <mxGeometry x="4.545454545454545" y="107.78461538461539" width="18.18181818181818" height="6.953846153846154" as="geometry" />
        </mxCell>
        <mxCell id="esfX10ickzwYWV4Qpk32-46" value="&lt;h1&gt;SOC&lt;/h1&gt;value, date" style="text;html=1;spacing=5;spacingTop=-20;whiteSpace=wrap;overflow=hidden;strokeColor=none;strokeWidth=4;fillColor=none;gradientColor=#007FFF;fontSize=6;fontColor=#FFFFFF;align=center;" vertex="1" parent="esfX10ickzwYWV4Qpk32-50">
          <mxGeometry x="27.272727272727273" y="97.70153846153846" width="72.72727272727272" height="26.77230769230769" as="geometry" />
        </mxCell>
        <mxCell id="esfX10ickzwYWV4Qpk32-47" value="" style="rounded=1;whiteSpace=wrap;html=1;strokeColor=none;strokeWidth=1;fillColor=#10739E;fontSize=13;fontColor=#FFFFFF;align=center;gradientColor=none;gradientDirection=east;verticalAlign=top;shadow=1;" vertex="1" parent="esfX10ickzwYWV4Qpk32-50">
          <mxGeometry y="142.55384615384617" width="99.99999999999999" height="29.553846153846155" as="geometry" />
        </mxCell>
        <mxCell id="esfX10ickzwYWV4Qpk32-48" value="2" style="text;html=1;strokeColor=none;fillColor=none;align=center;verticalAlign=middle;whiteSpace=wrap;fontSize=6;fontColor=#FFFFFF;" vertex="1" parent="esfX10ickzwYWV4Qpk32-50">
          <mxGeometry x="4.545454545454545" y="154.02769230769232" width="18.18181818181818" height="6.953846153846154" as="geometry" />
        </mxCell>
        <mxCell id="esfX10ickzwYWV4Qpk32-49" value="&lt;h1&gt;SOC&lt;/h1&gt;value, date" style="text;html=1;spacing=5;spacingTop=-20;whiteSpace=wrap;overflow=hidden;strokeColor=none;strokeWidth=4;fillColor=none;gradientColor=#007FFF;fontSize=6;fontColor=#FFFFFF;align=center;" vertex="1" parent="esfX10ickzwYWV4Qpk32-50">
          <mxGeometry x="27.272727272727273" y="143.9446153846154" width="72.72727272727272" height="26.77230769230769" as="geometry" />
        </mxCell>
        <mxCell id="esfX10ickzwYWV4Qpk32-51" value="" style="whiteSpace=wrap;html=1;fontStyle=1" vertex="1" parent="1">
          <mxGeometry x="689.16" y="350" width="220" height="210" as="geometry" />
        </mxCell>
        <mxCell id="esfX10ickzwYWV4Qpk32-52" value="" style="shape=image;verticalLabelPosition=bottom;labelBackgroundColor=#ffffff;verticalAlign=top;aspect=fixed;imageAspect=0;image=data:image/svg+xml,PHN2ZyB4bWxuczpjYz0iaHR0cDovL2NyZWF0aXZlY29tbW9ucy5vcmcvbnMjIiB4bWxuczpkYz0iaHR0cDovL3B1cmwub3JnL2RjL2VsZW1lbnRzLzEuMS8iIHhtbG5zOmlua3NjYXBlPSJodHRwOi8vd3d3Lmlua3NjYXBlLm9yZy9uYW1lc3BhY2VzL2lua3NjYXBlIiB4bWxuczpyZGY9Imh0dHA6Ly93d3cudzMub3JnLzE5OTkvMDIvMjItcmRmLXN5bnRheC1ucyMiIHhtbG5zOnNvZGlwb2RpPSJodHRwOi8vc29kaXBvZGkuc291cmNlZm9yZ2UubmV0L0RURC9zb2RpcG9kaS0wLmR0ZCIgeG1sbnM6c3ZnPSJodHRwOi8vd3d3LnczLm9yZy8yMDAwL3N2ZyIgeG1sbnM9Imh0dHA6Ly93d3cudzMub3JnLzIwMDAvc3ZnIiB4bWxuczp4bGluaz0iaHR0cDovL3d3dy53My5vcmcvMTk5OS94bGluayIgdmVyc2lvbj0iMS4xIiBpZD0ic3ZnMTA4MjM0IiBpbmtzY2FwZTp2ZXJzaW9uPSIwLjkyLjMgKDI0MDU1NDYsIDIwMTgtMDMtMTEpIiBzb2RpcG9kaTpkb2NuYW1lPSJ0YWJsZXMuc3ZnIiB4PSIwcHgiIHk9IjBweCIgdmlld0JveD0iMCAwIDU4Ljc3IDUwLjI0IiBzdHlsZT0iZW5hYmxlLWJhY2tncm91bmQ6bmV3IDAgMCA1OC43NyA1MC4yNDsiIHhtbDpzcGFjZT0icHJlc2VydmUiPiYjeGE7PHNvZGlwb2RpOm5hbWVkdmlldyBib3JkZXJjb2xvcj0iIzY2NjY2NiIgYm9yZGVyb3BhY2l0eT0iMSIgZml0LW1hcmdpbi1ib3R0b209IjAiIGZpdC1tYXJnaW4tbGVmdD0iMCIgZml0LW1hcmdpbi1yaWdodD0iMCIgZml0LW1hcmdpbi10b3A9IjAiIGdyaWR0b2xlcmFuY2U9IjEwIiBndWlkZXRvbGVyYW5jZT0iMTAiIGlkPSJuYW1lZHZpZXcxMDgyMzYiIGlua3NjYXBlOmN1cnJlbnQtbGF5ZXI9InN2ZzEwODIzNCIgaW5rc2NhcGU6Y3g9IjM5LjE3ODcwNSIgaW5rc2NhcGU6Y3k9IjMzLjQ5MjU3NSIgaW5rc2NhcGU6cGFnZW9wYWNpdHk9IjAiIGlua3NjYXBlOnBhZ2VzaGFkb3c9IjIiIGlua3NjYXBlOndpbmRvdy1oZWlnaHQ9IjEwMTciIGlua3NjYXBlOndpbmRvdy1tYXhpbWl6ZWQ9IjEiIGlua3NjYXBlOndpbmRvdy13aWR0aD0iMTkyMCIgaW5rc2NhcGU6d2luZG93LXg9Ii04IiBpbmtzY2FwZTp3aW5kb3cteT0iLTgiIGlua3NjYXBlOnpvb209IjEyLjk0MjU3MyIgb2JqZWN0dG9sZXJhbmNlPSIxMCIgcGFnZWNvbG9yPSIjZmZmZmZmIiBzaG93Z3JpZD0iZmFsc2UiPiYjeGE7CTwvc29kaXBvZGk6bmFtZWR2aWV3PiYjeGE7PGcgaWQ9ImcxMDgyMzIiIHRyYW5zZm9ybT0idHJhbnNsYXRlKDAsMC4wMDMzNDUzMSkiPiYjeGE7CTx0aXRsZSBpZD0idGl0bGUxMDgwNzciPlBhZ2UtMTwvdGl0bGU+JiN4YTsJPGcgaWQ9Imdyb3VwMzg5OC0xIj4mI3hhOwkJPHRpdGxlIGlkPSJ0aXRsZTEwODA3OSI+VGFibGVzPC90aXRsZT4mI3hhOwkJPGcgaWQ9InNoYXBlMzg5OS0yIj4mI3hhOwkJCTx0aXRsZSBpZD0idGl0bGUxMDgwODEiPlNoZWV0LjM4OTk8L3RpdGxlPiYjeGE7CQkJPHBhdGggaWQ9InBhdGgxMDgwODMiIGlua3NjYXBlOmNvbm5lY3Rvci1jdXJ2YXR1cmU9IjAiIHN0eWxlPSJmaWxsOiNFMEUwRTA7IiBkPSJNMCw0Ny45OGMwLDEuMzQsMC45NiwyLjI2LDIuMTQsMi4yNiAgICAgYzU0LjQxLDAsNTQuNDEsMCw1NC40MSwwYzEuMywwLDIuMjItMC45MiwyLjIyLTIuMjZjMC0zOS40LDAtMzkuNCwwLTM5LjRDMCw4LjU4LDAsOC41OCwwLDguNThDMCw0Ny45OCwwLDQ3Ljk4LDAsNDcuOTh6Ii8+JiN4YTsJCTwvZz4mI3hhOwkJPGcgaWQ9InNoYXBlMzkwMC00IiB0cmFuc2Zvcm09InRyYW5zbGF0ZSgwLC00MS42NjM0KSI+JiN4YTsJCQk8dGl0bGUgaWQ9InRpdGxlMTA4MDg2Ij5TaGVldC4zOTAwPC90aXRsZT4mI3hhOwkJCTxwYXRoIGlkPSJwYXRoMTA4MDg4IiBpbmtzY2FwZTpjb25uZWN0b3ItY3VydmF0dXJlPSIwIiBzdHlsZT0iZmlsbDojOERDNjNGOyIgZD0iTTU2LjY2LDQxLjY2Yy01NC41MiwwLTU0LjUyLDAtNTQuNTIsMCAgICAgQzAuOTYsNDEuNjYsMCw0Mi43LDAsNDMuODFjMCw2LjQzLDAsNi40MywwLDYuNDNjNTguNzcsMCw1OC43NywwLDU4Ljc3LDBjMC02LjQzLDAtNi40MywwLTYuNDMgICAgIEM1OC43Nyw0Mi43LDU3Ljg1LDQxLjY2LDU2LjY2LDQxLjY2eiIvPiYjeGE7CQk8L2c+JiN4YTsJCTxnIGlkPSJzaGFwZTM5MDEtNiIgdHJhbnNmb3JtPSJ0cmFuc2xhdGUoMTcuMTQwNywtMjIuMDU3MSkiPiYjeGE7CQkJPHRpdGxlIGlkPSJ0aXRsZTEwODA5MSI+U2hlZXQuMzkwMTwvdGl0bGU+JiN4YTsJCQk8cGF0aCBpZD0icGF0aDEwODA5MyIgaW5rc2NhcGU6Y29ubmVjdG9yLWN1cnZhdHVyZT0iMCIgc3R5bGU9ImZpbGw6I0ZGRkZGRjsiIGQ9Ik0wLDQzLjV2Ni43NGgxMS4wMlY0My41SDB6Ii8+JiN4YTsJCTwvZz4mI3hhOwkJPGcgaWQ9InNoYXBlMzkwMi04IiB0cmFuc2Zvcm09InRyYW5zbGF0ZSgxNy4xNDA3LC0zMC42MzQ4KSI+JiN4YTsJCQk8dGl0bGUgaWQ9InRpdGxlMTA4MDk2Ij5TaGVldC4zOTAyPC90aXRsZT4mI3hhOwkJCTxwYXRoIGlkPSJwYXRoMTA4MDk4IiBpbmtzY2FwZTpjb25uZWN0b3ItY3VydmF0dXJlPSIwIiBzdHlsZT0iZmlsbDojRkZGRkZGOyIgZD0iTTAsNDMuNXY2Ljc0aDExLjAyVjQzLjVIMHoiLz4mI3hhOwkJPC9nPiYjeGE7CQk8ZyBpZD0ic2hhcGUzOTAzLTEwIiB0cmFuc2Zvcm09InRyYW5zbGF0ZSgxNy4xNDA3LC0xMy40NzkzKSI+JiN4YTsJCQk8dGl0bGUgaWQ9InRpdGxlMTA4MTAxIj5TaGVldC4zOTAzPC90aXRsZT4mI3hhOwkJCTxwYXRoIGlkPSJwYXRoMTA4MTAzIiBpbmtzY2FwZTpjb25uZWN0b3ItY3VydmF0dXJlPSIwIiBzdHlsZT0iZmlsbDojRkZGRkZGOyIgZD0iTTAsNDQuMTF2Ni4xM2gxMS4wMnYtNi4xM0gweiIvPiYjeGE7CQk8L2c+JiN4YTsJCTxnIGlkPSJzaGFwZTM5MDQtMTIiIHRyYW5zZm9ybT0idHJhbnNsYXRlKDMwLjYwODQsLTEzLjQ3OTMpIj4mI3hhOwkJCTx0aXRsZSBpZD0idGl0bGUxMDgxMDYiPlNoZWV0LjM5MDQ8L3RpdGxlPiYjeGE7CQkJPHBhdGggaWQ9InBhdGgxMDgxMDgiIGlua3NjYXBlOmNvbm5lY3Rvci1jdXJ2YXR1cmU9IjAiIHN0eWxlPSJmaWxsOiNGRkZGRkY7IiBkPSJNMCw0NC4xMXY2LjEzaDExLjAydi02LjEzSDB6Ii8+JiN4YTsJCTwvZz4mI3hhOwkJPGcgaWQ9InNoYXBlMzkwNS0xNCIgdHJhbnNmb3JtPSJ0cmFuc2xhdGUoMzAuNjA4NCwtMjIuMDU3MSkiPiYjeGE7CQkJPHRpdGxlIGlkPSJ0aXRsZTEwODExMSI+U2hlZXQuMzkwNTwvdGl0bGU+JiN4YTsJCQk8cGF0aCBpZD0icGF0aDEwODExMyIgaW5rc2NhcGU6Y29ubmVjdG9yLWN1cnZhdHVyZT0iMCIgc3R5bGU9ImZpbGw6I0ZGRkZGRjsiIGQ9Ik0wLDQzLjV2Ni43NGgxMS4wMlY0My41SDB6Ii8+JiN4YTsJCTwvZz4mI3hhOwkJPGcgaWQ9InNoYXBlMzkwNi0xNiIgdHJhbnNmb3JtPSJ0cmFuc2xhdGUoMzAuNjA4NCwtMzAuNjM0OCkiPiYjeGE7CQkJPHRpdGxlIGlkPSJ0aXRsZTEwODExNiI+U2hlZXQuMzkwNjwvdGl0bGU+JiN4YTsJCQk8cGF0aCBpZD0icGF0aDEwODExOCIgaW5rc2NhcGU6Y29ubmVjdG9yLWN1cnZhdHVyZT0iMCIgc3R5bGU9ImZpbGw6IzkyRDA1MDsiIGQ9Ik0wLDQzLjV2Ni43NGgxMS4wMlY0My41SDB6Ii8+JiN4YTsJCTwvZz4mI3hhOwkJPGcgaWQ9InNoYXBlMzkwNy0xOCIgdHJhbnNmb3JtPSJ0cmFuc2xhdGUoNC4yODUxNywtMzAuNjM0OCkiPiYjeGE7CQkJPHRpdGxlIGlkPSJ0aXRsZTEwODEyMSI+U2hlZXQuMzkwNzwvdGl0bGU+JiN4YTsJCQk8cGF0aCBpZD0icGF0aDEwODEyMyIgaW5rc2NhcGU6Y29ubmVjdG9yLWN1cnZhdHVyZT0iMCIgc3R5bGU9ImZpbGw6I0ZGRkZGRjsiIGQ9Ik0wLDQzLjV2Ni43NGgxMS4wMlY0My41SDB6Ii8+JiN4YTsJCTwvZz4mI3hhOwkJPGcgaWQ9InNoYXBlMzkwOC0yMCIgdHJhbnNmb3JtPSJ0cmFuc2xhdGUoNC4yODUxNywtMjIuMDU3MSkiPiYjeGE7CQkJPHRpdGxlIGlkPSJ0aXRsZTEwODEyNiI+U2hlZXQuMzkwODwvdGl0bGU+JiN4YTsJCQk8cGF0aCBpZD0icGF0aDEwODEyOCIgaW5rc2NhcGU6Y29ubmVjdG9yLWN1cnZhdHVyZT0iMCIgc3R5bGU9ImZpbGw6I0ZGRkZGRjsiIGQ9Ik0wLDQzLjV2Ni43NGgxMS4wMlY0My41SDB6Ii8+JiN4YTsJCTwvZz4mI3hhOwkJPGcgaWQ9InNoYXBlMzkwOS0yMiIgdHJhbnNmb3JtPSJ0cmFuc2xhdGUoNC4yODUxNywtMTMuNDc5MykiPiYjeGE7CQkJPHRpdGxlIGlkPSJ0aXRsZTEwODEzMSI+U2hlZXQuMzkwOTwvdGl0bGU+JiN4YTsJCQk8cGF0aCBpZD0icGF0aDEwODEzMyIgaW5rc2NhcGU6Y29ubmVjdG9yLWN1cnZhdHVyZT0iMCIgc3R5bGU9ImZpbGw6IzhEQzYzRjsiIGQ9Ik0wLDQ0LjExdjYuMTNoMTEuMDJ2LTYuMTNIMHoiLz4mI3hhOwkJPC9nPiYjeGE7CQk8ZyBpZD0ic2hhcGUzOTEwLTI0IiB0cmFuc2Zvcm09InRyYW5zbGF0ZSg0LjI4NTE3LC00LjI4ODg4KSI+JiN4YTsJCQk8dGl0bGUgaWQ9InRpdGxlMTA4MTM2Ij5TaGVldC4zOTEwPC90aXRsZT4mI3hhOwkJCTxwYXRoIGlkPSJwYXRoMTA4MTM4IiBpbmtzY2FwZTpjb25uZWN0b3ItY3VydmF0dXJlPSIwIiBzdHlsZT0iZmlsbDojRkZGRkZGOyIgZD0iTTAsNDMuNXY2Ljc0aDExLjAyVjQzLjVIMHoiLz4mI3hhOwkJPC9nPiYjeGE7CQk8ZyBpZD0ic2hhcGUzOTExLTI2IiB0cmFuc2Zvcm09InRyYW5zbGF0ZSgxNy4xNDA3LC00LjI4ODg4KSI+JiN4YTsJCQk8dGl0bGUgaWQ9InRpdGxlMTA4MTQxIj5TaGVldC4zOTExPC90aXRsZT4mI3hhOwkJCTxwYXRoIGlkPSJwYXRoMTA4MTQzIiBpbmtzY2FwZTpjb25uZWN0b3ItY3VydmF0dXJlPSIwIiBzdHlsZT0iZmlsbDojRkZGRkZGOyIgZD0iTTAsNDMuNXY2Ljc0aDExLjAyVjQzLjVIMHoiLz4mI3hhOwkJPC9nPiYjeGE7CQk8ZyBpZD0ic2hhcGUzOTEyLTI4IiB0cmFuc2Zvcm09InRyYW5zbGF0ZSgzMC42MDg0LC00LjI4ODg4KSI+JiN4YTsJCQk8dGl0bGUgaWQ9InRpdGxlMTA4MTQ2Ij5TaGVldC4zOTEyPC90aXRsZT4mI3hhOwkJCTxwYXRoIGlkPSJwYXRoMTA4MTQ4IiBpbmtzY2FwZTpjb25uZWN0b3ItY3VydmF0dXJlPSIwIiBzdHlsZT0iZmlsbDojRkZGRkZGOyIgZD0iTTAsNDMuNXY2Ljc0aDExLjAyVjQzLjVIMHoiLz4mI3hhOwkJPC9nPiYjeGE7CQk8ZyBpZD0ic2hhcGUzOTEzLTMwIiB0cmFuc2Zvcm09InRyYW5zbGF0ZSg0My40NjM5LC0xMy40NzkzKSI+JiN4YTsJCQk8dGl0bGUgaWQ9InRpdGxlMTA4MTUxIj5TaGVldC4zOTEzPC90aXRsZT4mI3hhOwkJCTxwYXRoIGlkPSJwYXRoMTA4MTUzIiBpbmtzY2FwZTpjb25uZWN0b3ItY3VydmF0dXJlPSIwIiBzdHlsZT0iZmlsbDojRkZGRkZGOyIgZD0iTTAsNDQuMTF2Ni4xM2gxMS4wMnYtNi4xM0gweiIvPiYjeGE7CQk8L2c+JiN4YTsJCTxnIGlkPSJzaGFwZTM5MTQtMzIiIHRyYW5zZm9ybT0idHJhbnNsYXRlKDQzLjQ2MzksLTIyLjA1NzEpIj4mI3hhOwkJCTx0aXRsZSBpZD0idGl0bGUxMDgxNTYiPlNoZWV0LjM5MTQ8L3RpdGxlPiYjeGE7CQkJPHBhdGggaWQ9InBhdGgxMDgxNTgiIGlua3NjYXBlOmNvbm5lY3Rvci1jdXJ2YXR1cmU9IjAiIHN0eWxlPSJmaWxsOiNGRkZGRkY7IiBkPSJNMCw0My41djYuNzRoMTEuMDJWNDMuNUgweiIvPiYjeGE7CQk8L2c+JiN4YTsJCTxnIGlkPSJzaGFwZTM5MTUtMzQiIHRyYW5zZm9ybT0idHJhbnNsYXRlKDQzLjQ2MzksLTMwLjYzNDgpIj4mI3hhOwkJCTx0aXRsZSBpZD0idGl0bGUxMDgxNjEiPlNoZWV0LjM5MTU8L3RpdGxlPiYjeGE7CQkJPHBhdGggaWQ9InBhdGgxMDgxNjMiIGlua3NjYXBlOmNvbm5lY3Rvci1jdXJ2YXR1cmU9IjAiIHN0eWxlPSJmaWxsOiM5MkQwNTA7IiBkPSJNMCw0My41djYuNzRoMTEuMDJWNDMuNUgweiIvPiYjeGE7CQk8L2c+JiN4YTsJCTxnIGlkPSJzaGFwZTM5MTYtMzYiIHRyYW5zZm9ybT0idHJhbnNsYXRlKDQzLjQ2MzksLTQuMjg4ODgpIj4mI3hhOwkJCTx0aXRsZSBpZD0idGl0bGUxMDgxNjYiPlNoZWV0LjM5MTY8L3RpdGxlPiYjeGE7CQkJPHBhdGggaWQ9InBhdGgxMDgxNjgiIGlua3NjYXBlOmNvbm5lY3Rvci1jdXJ2YXR1cmU9IjAiIHN0eWxlPSJmaWxsOiNGRkZGRkY7IiBkPSJNMCw0My41djYuNzRoMTEuMDJWNDMuNUgweiIvPiYjeGE7CQk8L2c+JiN4YTsJCTxnIGlkPSJzaGFwZTM5MTctMzgiIHRyYW5zZm9ybT0idHJhbnNsYXRlKDEuODM2NSkiPiYjeGE7CQkJPHRpdGxlIGlkPSJ0aXRsZTEwODE3MSI+U2hlZXQuMzkxNzwvdGl0bGU+JiN4YTsJCQk8cGF0aCBpZD0icGF0aDEwODE3MyIgaW5rc2NhcGU6Y29ubmVjdG9yLWN1cnZhdHVyZT0iMCIgc3R5bGU9ImZpbGw6IzFDNDI3RjsiIGQ9Ik0wLjE1LDUwLjI0YzAuMTIsMCwwLjIzLDAsMC40NiwwICAgICBjMi40OSwwLDIuNDksMCwyLjQ5LDBjMC4xMSwwLDAuMTEsMCwwLjExLDBjLTIuODMsMC0yLjgzLDAtMi44MywwQzAuMjcsNTAuMjQsMC4yNyw1MC4yNCwwLjE1LDUwLjI0eiBNNDkuNTksMCAgICAgQzAuNjEsMCwwLjYxLDAsMC42MSwwQzAuMzgsMCwwLjI3LDAsMCwwLjE1QzAuMTUsMC4xNSwwLjI3LDAsMC4zOCwwQzQ5LjU5LDAsNDkuNTksMCw0OS41OSwwTDQ5LjU5LDB6Ii8+JiN4YTsJCTwvZz4mI3hhOwkJPGcgaWQ9InNoYXBlMzkxOC00MCI+JiN4YTsJCQk8dGl0bGUgaWQ9InRpdGxlMTA4MTc2Ij5TaGVldC4zOTE4PC90aXRsZT4mI3hhOwkJCTxwYXRoIGlkPSJwYXRoMTA4MTc4IiBpbmtzY2FwZTpjb25uZWN0b3ItY3VydmF0dXJlPSIwIiBzdHlsZT0iZmlsbDojRTNFM0UzOyIgZD0iTTQuMzYsMzcuMDNjMC02LjY2LDAtNi42NiwwLTYuNjYgICAgIGMxMC43OSwwLDEwLjc5LDAsMTAuNzksMGMwLDYuNjYsMCw2LjY2LDAsNi42NkM0LjM2LDM3LjAzLDQuMzYsMzcuMDMsNC4zNiwzNy4wM3ogTTQuMzYsMjguMjJjMC02LjY2LDAtNi42NiwwLTYuNjYgICAgIGMxMC43OSwwLDEwLjc5LDAsMTAuNzksMGMwLDYuNjYsMCw2LjY2LDAsNi42NkM0LjM2LDI4LjIyLDQuMzYsMjguMjIsNC4zNiwyOC4yMnogTTQuMzYsMTkuNDFjMC02LjY2LDAtNi42NiwwLTYuNjYgICAgIGMxMC43OSwwLDEwLjc5LDAsMTAuNzksMGMwLDYuNjYsMCw2LjY2LDAsNi42NkM0LjM2LDE5LjQxLDQuMzYsMTkuNDEsNC4zNiwxOS40MXogTTE3LjQxLDE5LjQxYzAtNi42NiwwLTYuNjYsMC02LjY2ICAgICBjMTAuNzksMCwxMC43OSwwLDEwLjc5LDBjMCw2LjY2LDAsNi42NiwwLDYuNjZDMTcuNDEsMTkuNDEsMTcuNDEsMTkuNDEsMTcuNDEsMTkuNDF6IE00Mi44NSw4LjU4QzAsOC41OCwwLDguNTgsMCw4LjU4ICAgICBjMCwyLjAzLDAsMi4wMywwLDIuMDNjMCwzLjk0LDAsMy45NCwwLDMuOTRjMCwzMy4zMiwwLDMzLjMyLDAsMzMuMzJjMCwxLjE4LDAuODQsMi4xNCwxLjkxLDIuMzdjMC4xMiwwLDAuMTIsMCwwLjIzLDAgICAgIGMyLjgsMCwyLjgsMCwyLjgsMGM0LjAxLTQuNCw0LjAxLTQuNCw0LjAxLTQuNGMtNC41OSwwLTQuNTksMC00LjU5LDBjMC02LjY3LDAtNi42NywwLTYuNjdjMTAuNTYsMCwxMC41NiwwLDEwLjU2LDAgICAgIGMyLjQ5LTIuNiwyLjQ5LTIuNiwyLjQ5LTIuNmMwLTYuMiwwLTYuMiwwLTYuMmM1LjYyLDAsNS42MiwwLDUuNjIsMGMxLjk5LTIuMTUsMS45OS0yLjE1LDEuOTktMi4xNWMtNy42MSwwLTcuNjEsMC03LjYxLDAgICAgIGMwLTYuNjYsMC02LjY2LDAtNi42NmMxMC43OSwwLDEwLjc5LDAsMTAuNzksMGMwLDMuMSwwLDMuMSwwLDMuMWMyLjIyLTIuMzcsMi4yMi0yLjM3LDIuMjItMi4zN2MwLTAuNzMsMC0wLjczLDAtMC43MyAgICAgYzAuNjEsMCwwLjYxLDAsMC42MSwwYzEuOTktMi4xNSwxLjk5LTIuMTUsMS45OS0yLjE1Yy0yLjYsMC0yLjYsMC0yLjYsMGMwLTYuNjYsMC02LjY2LDAtNi42NmM4LjU3LDAsOC41NywwLDguNTcsMCAgICAgQzQyLjg1LDguNTgsNDIuODUsOC41OCw0Mi44NSw4LjU4eiIvPiYjeGE7CQk8L2c+JiN4YTsJCTxnIGlkPSJzaGFwZTM5MTktNDIiIHRyYW5zZm9ybT0idHJhbnNsYXRlKDAsLTQxLjY2MzQpIj4mI3hhOwkJCTx0aXRsZSBpZD0idGl0bGUxMDgxODEiPlNoZWV0LjM5MTk8L3RpdGxlPiYjeGE7CQkJPHBhdGggaWQ9InBhdGgxMDgxODMiIGlua3NjYXBlOmNvbm5lY3Rvci1jdXJ2YXR1cmU9IjAiIHN0eWxlPSJmaWxsOiM5OUNDNTM7IiBkPSJNNTEuNDIsNDEuNjZjLTQ5LjI4LDAtNDkuMjgsMC00OS4yOCwwICAgICBjLTAuMTEsMC0wLjIzLDAuMTItMC4zNCwwLjEyQzAuNzMsNDIuMDEsMCw0Mi45MywwLDQzLjkyYzAsNi4zMiwwLDYuMzIsMCw2LjMyYzQzLjE2LDAsNDMuMTYsMCw0My4xNiwwICAgICBDNTEuNDIsNDEuNjYsNTEuNDIsNDEuNjYsNTEuNDIsNDEuNjZ6Ii8+JiN4YTsJCTwvZz4mI3hhOwkJPGcgaWQ9InNoYXBlMzkyMC00NCIgdHJhbnNmb3JtPSJ0cmFuc2xhdGUoMTcuMTQwNywtMjIuMDU3MSkiPiYjeGE7CQkJPHRpdGxlIGlkPSJ0aXRsZTEwODE4NiI+U2hlZXQuMzkyMDwvdGl0bGU+JiN4YTsJCQk8cGF0aCBpZD0icGF0aDEwODE4OCIgaW5rc2NhcGU6Y29ubmVjdG9yLWN1cnZhdHVyZT0iMCIgc3R5bGU9ImZpbGw6I0ZGRkZGRjsiIGQ9Ik0xMS4wMiw0My41SDB2Ni43NGg3LjgxbDMuMjEtMy42VjQzLjV6Ii8+JiN4YTsJCTwvZz4mI3hhOwkJPGcgaWQ9InNoYXBlMzkyMS00NiIgdHJhbnNmb3JtPSJ0cmFuc2xhdGUoMTcuMTQwNywtMzAuNjM0OCkiPiYjeGE7CQkJPHRpdGxlIGlkPSJ0aXRsZTEwODE5MSI+U2hlZXQuMzkyMTwvdGl0bGU+JiN4YTsJCQk8cGF0aCBpZD0icGF0aDEwODE5MyIgaW5rc2NhcGU6Y29ubmVjdG9yLWN1cnZhdHVyZT0iMCIgc3R5bGU9ImZpbGw6IzkyRDA1MDsiIGQ9Ik0wLDQzLjV2Ni43NGgxMS4wMlY0My41SDB6Ii8+JiN4YTsJCTwvZz4mI3hhOwkJPGcgaWQ9InNoYXBlMzkyMi00OCIgdHJhbnNmb3JtPSJ0cmFuc2xhdGUoMTcuMTQwNywtMTMuNDc5MykiPiYjeGE7CQkJPHRpdGxlIGlkPSJ0aXRsZTEwODE5NiI+U2hlZXQuMzkyMjwvdGl0bGU+JiN4YTsJCQk8cGF0aCBpZD0icGF0aDEwODE5OCIgaW5rc2NhcGU6Y29ubmVjdG9yLWN1cnZhdHVyZT0iMCIgc3R5bGU9ImZpbGw6I0ZGRkZGRjsiIGQ9Ik02LjEyLDQ0LjExSDB2Ni4xM0w2LjEyLDQ0LjExeiIvPiYjeGE7CQk8L2c+JiN4YTsJCTxnIGlkPSJzaGFwZTM5MjMtNTAiIHRyYW5zZm9ybT0idHJhbnNsYXRlKDMwLjYwODQsLTI3LjU3MTQpIj4mI3hhOwkJCTx0aXRsZSBpZD0idGl0bGUxMDgyMDEiPlNoZWV0LjM5MjM8L3RpdGxlPiYjeGE7CQkJPHBhdGggaWQ9InBhdGgxMDgyMDMiIGlua3NjYXBlOmNvbm5lY3Rvci1jdXJ2YXR1cmU9IjAiIHN0eWxlPSJmaWxsOiNGRkZGRkY7IiBkPSJNMC42MSw0OS4wMkgwdjEuMjJMMC42MSw0OS4wMnoiLz4mI3hhOwkJPC9nPiYjeGE7CQk8ZyBpZD0ic2hhcGUzOTI0LTUyIiB0cmFuc2Zvcm09InRyYW5zbGF0ZSgzMC42MDg0LC0zMC42MzQ4KSI+JiN4YTsJCQk8dGl0bGUgaWQ9InRpdGxlMTA4MjA2Ij5TaGVldC4zOTI0PC90aXRsZT4mI3hhOwkJCTxwYXRoIGlkPSJwYXRoMTA4MjA4IiBpbmtzY2FwZTpjb25uZWN0b3ItY3VydmF0dXJlPSIwIiBzdHlsZT0iZmlsbDojOTJEMDUwOyIgZD0iTTguNTcsNDMuNUgwdjYuNzRoMi42NEw4LjU3LDQzLjV6Ii8+JiN4YTsJCTwvZz4mI3hhOwkJPGcgaWQ9InNoYXBlMzkyNS01NCIgdHJhbnNmb3JtPSJ0cmFuc2xhdGUoNC4yODUxNywtMzAuNjM0OCkiPiYjeGE7CQkJPHRpdGxlIGlkPSJ0aXRsZTEwODIxMSI+U2hlZXQuMzkyNTwvdGl0bGU+JiN4YTsJCQk8cGF0aCBpZD0icGF0aDEwODIxMyIgaW5rc2NhcGU6Y29ubmVjdG9yLWN1cnZhdHVyZT0iMCIgc3R5bGU9ImZpbGw6IzkyRDA1MDsiIGQ9Ik0wLDQzLjV2Ni43NGgxMS4wMlY0My41SDB6Ii8+JiN4YTsJCTwvZz4mI3hhOwkJPGcgaWQ9InNoYXBlMzkyNi01NiIgdHJhbnNmb3JtPSJ0cmFuc2xhdGUoNC4yODUxNywtMjIuMDU3MSkiPiYjeGE7CQkJPHRpdGxlIGlkPSJ0aXRsZTEwODIxNiI+U2hlZXQuMzkyNjwvdGl0bGU+JiN4YTsJCQk8cGF0aCBpZD0icGF0aDEwODIxOCIgaW5rc2NhcGU6Y29ubmVjdG9yLWN1cnZhdHVyZT0iMCIgc3R5bGU9ImZpbGw6I0ZGRkZGRjsiIGQ9Ik0wLDQzLjV2Ni43NGgxMS4wMlY0My41SDB6Ii8+JiN4YTsJCTwvZz4mI3hhOwkJPGcgaWQ9InNoYXBlMzkyNy01OCIgdHJhbnNmb3JtPSJ0cmFuc2xhdGUoNC4yODUxNywtMTMuNDc5MykiPiYjeGE7CQkJPHRpdGxlIGlkPSJ0aXRsZTEwODIyMSI+U2hlZXQuMzkyNzwvdGl0bGU+JiN4YTsJCQk8cGF0aCBpZD0icGF0aDEwODIyMyIgaW5rc2NhcGU6Y29ubmVjdG9yLWN1cnZhdHVyZT0iMCIgc3R5bGU9ImZpbGw6I0ZGRkZGRjsiIGQ9Ik0wLDQ0LjExdjYuMTNoMTEuMDJ2LTYuMTNIMHoiLz4mI3hhOwkJPC9nPiYjeGE7CQk8ZyBpZD0ic2hhcGUzOTI4LTYwIiB0cmFuc2Zvcm09InRyYW5zbGF0ZSg0LjIxODc1LC00LjI4ODg4KSI+JiN4YTsJCQk8dGl0bGUgaWQ9InRpdGxlMTA4MjI2Ij5TaGVldC4zOTI4PC90aXRsZT4mI3hhOwkJCTxwYXRoIGlkPSJwYXRoMTA4MjI4IiBpbmtzY2FwZTpjb25uZWN0b3ItY3VydmF0dXJlPSIwIiBzdHlsZT0iZmlsbDojRkZGRkZGOyIgZD0iTTEwLjQxLDQzLjVIMHY2Ljc0aDQuNTFMMTAuNDEsNDMuNXoiLz4mI3hhOwkJPC9nPiYjeGE7CTwvZz4mI3hhOzwvZz4mI3hhOzwvc3ZnPg==;" vertex="1" parent="1">
          <mxGeometry x="740.16" y="448" width="109" height="92.37" as="geometry" />
        </mxCell>
        <mxCell id="esfX10ickzwYWV4Qpk32-53" value="&lt;font style=&quot;font-size: 28px;&quot;&gt;Site metadata&lt;br&gt;&lt;/font&gt;" style="text;strokeColor=none;align=center;fillColor=none;html=1;verticalAlign=middle;whiteSpace=wrap;rounded=0;fontSize=21;" vertex="1" parent="1">
          <mxGeometry x="709.16" y="350" width="180" height="57" as="geometry" />
        </mxCell>
        <mxCell id="esfX10ickzwYWV4Qpk32-74" value="" style="whiteSpace=wrap;html=1;fontStyle=1" vertex="1" parent="1">
          <mxGeometry x="1055" y="350" width="220" height="210" as="geometry" />
        </mxCell>
        <mxCell id="esfX10ickzwYWV4Qpk32-75" value="" style="shape=image;verticalLabelPosition=bottom;labelBackgroundColor=#ffffff;verticalAlign=top;aspect=fixed;imageAspect=0;image=data:image/svg+xml,PHN2ZyB4bWxuczpjYz0iaHR0cDovL2NyZWF0aXZlY29tbW9ucy5vcmcvbnMjIiB4bWxuczpkYz0iaHR0cDovL3B1cmwub3JnL2RjL2VsZW1lbnRzLzEuMS8iIHhtbG5zOmlua3NjYXBlPSJodHRwOi8vd3d3Lmlua3NjYXBlLm9yZy9uYW1lc3BhY2VzL2lua3NjYXBlIiB4bWxuczpyZGY9Imh0dHA6Ly93d3cudzMub3JnLzE5OTkvMDIvMjItcmRmLXN5bnRheC1ucyMiIHhtbG5zOnNvZGlwb2RpPSJodHRwOi8vc29kaXBvZGkuc291cmNlZm9yZ2UubmV0L0RURC9zb2RpcG9kaS0wLmR0ZCIgeG1sbnM6c3ZnPSJodHRwOi8vd3d3LnczLm9yZy8yMDAwL3N2ZyIgeG1sbnM9Imh0dHA6Ly93d3cudzMub3JnLzIwMDAvc3ZnIiB4bWxuczp4bGluaz0iaHR0cDovL3d3dy53My5vcmcvMTk5OS94bGluayIgdmVyc2lvbj0iMS4xIiBpZD0ic3ZnMTA4MjM0IiBpbmtzY2FwZTp2ZXJzaW9uPSIwLjkyLjMgKDI0MDU1NDYsIDIwMTgtMDMtMTEpIiBzb2RpcG9kaTpkb2NuYW1lPSJ0YWJsZXMuc3ZnIiB4PSIwcHgiIHk9IjBweCIgdmlld0JveD0iMCAwIDU4Ljc3IDUwLjI0IiBzdHlsZT0iZW5hYmxlLWJhY2tncm91bmQ6bmV3IDAgMCA1OC43NyA1MC4yNDsiIHhtbDpzcGFjZT0icHJlc2VydmUiPiYjeGE7PHNvZGlwb2RpOm5hbWVkdmlldyBib3JkZXJjb2xvcj0iIzY2NjY2NiIgYm9yZGVyb3BhY2l0eT0iMSIgZml0LW1hcmdpbi1ib3R0b209IjAiIGZpdC1tYXJnaW4tbGVmdD0iMCIgZml0LW1hcmdpbi1yaWdodD0iMCIgZml0LW1hcmdpbi10b3A9IjAiIGdyaWR0b2xlcmFuY2U9IjEwIiBndWlkZXRvbGVyYW5jZT0iMTAiIGlkPSJuYW1lZHZpZXcxMDgyMzYiIGlua3NjYXBlOmN1cnJlbnQtbGF5ZXI9InN2ZzEwODIzNCIgaW5rc2NhcGU6Y3g9IjM5LjE3ODcwNSIgaW5rc2NhcGU6Y3k9IjMzLjQ5MjU3NSIgaW5rc2NhcGU6cGFnZW9wYWNpdHk9IjAiIGlua3NjYXBlOnBhZ2VzaGFkb3c9IjIiIGlua3NjYXBlOndpbmRvdy1oZWlnaHQ9IjEwMTciIGlua3NjYXBlOndpbmRvdy1tYXhpbWl6ZWQ9IjEiIGlua3NjYXBlOndpbmRvdy13aWR0aD0iMTkyMCIgaW5rc2NhcGU6d2luZG93LXg9Ii04IiBpbmtzY2FwZTp3aW5kb3cteT0iLTgiIGlua3NjYXBlOnpvb209IjEyLjk0MjU3MyIgb2JqZWN0dG9sZXJhbmNlPSIxMCIgcGFnZWNvbG9yPSIjZmZmZmZmIiBzaG93Z3JpZD0iZmFsc2UiPiYjeGE7CTwvc29kaXBvZGk6bmFtZWR2aWV3PiYjeGE7PGcgaWQ9ImcxMDgyMzIiIHRyYW5zZm9ybT0idHJhbnNsYXRlKDAsMC4wMDMzNDUzMSkiPiYjeGE7CTx0aXRsZSBpZD0idGl0bGUxMDgwNzciPlBhZ2UtMTwvdGl0bGU+JiN4YTsJPGcgaWQ9Imdyb3VwMzg5OC0xIj4mI3hhOwkJPHRpdGxlIGlkPSJ0aXRsZTEwODA3OSI+VGFibGVzPC90aXRsZT4mI3hhOwkJPGcgaWQ9InNoYXBlMzg5OS0yIj4mI3hhOwkJCTx0aXRsZSBpZD0idGl0bGUxMDgwODEiPlNoZWV0LjM4OTk8L3RpdGxlPiYjeGE7CQkJPHBhdGggaWQ9InBhdGgxMDgwODMiIGlua3NjYXBlOmNvbm5lY3Rvci1jdXJ2YXR1cmU9IjAiIHN0eWxlPSJmaWxsOiNFMEUwRTA7IiBkPSJNMCw0Ny45OGMwLDEuMzQsMC45NiwyLjI2LDIuMTQsMi4yNiAgICAgYzU0LjQxLDAsNTQuNDEsMCw1NC40MSwwYzEuMywwLDIuMjItMC45MiwyLjIyLTIuMjZjMC0zOS40LDAtMzkuNCwwLTM5LjRDMCw4LjU4LDAsOC41OCwwLDguNThDMCw0Ny45OCwwLDQ3Ljk4LDAsNDcuOTh6Ii8+JiN4YTsJCTwvZz4mI3hhOwkJPGcgaWQ9InNoYXBlMzkwMC00IiB0cmFuc2Zvcm09InRyYW5zbGF0ZSgwLC00MS42NjM0KSI+JiN4YTsJCQk8dGl0bGUgaWQ9InRpdGxlMTA4MDg2Ij5TaGVldC4zOTAwPC90aXRsZT4mI3hhOwkJCTxwYXRoIGlkPSJwYXRoMTA4MDg4IiBpbmtzY2FwZTpjb25uZWN0b3ItY3VydmF0dXJlPSIwIiBzdHlsZT0iZmlsbDojOERDNjNGOyIgZD0iTTU2LjY2LDQxLjY2Yy01NC41MiwwLTU0LjUyLDAtNTQuNTIsMCAgICAgQzAuOTYsNDEuNjYsMCw0Mi43LDAsNDMuODFjMCw2LjQzLDAsNi40MywwLDYuNDNjNTguNzcsMCw1OC43NywwLDU4Ljc3LDBjMC02LjQzLDAtNi40MywwLTYuNDMgICAgIEM1OC43Nyw0Mi43LDU3Ljg1LDQxLjY2LDU2LjY2LDQxLjY2eiIvPiYjeGE7CQk8L2c+JiN4YTsJCTxnIGlkPSJzaGFwZTM5MDEtNiIgdHJhbnNmb3JtPSJ0cmFuc2xhdGUoMTcuMTQwNywtMjIuMDU3MSkiPiYjeGE7CQkJPHRpdGxlIGlkPSJ0aXRsZTEwODA5MSI+U2hlZXQuMzkwMTwvdGl0bGU+JiN4YTsJCQk8cGF0aCBpZD0icGF0aDEwODA5MyIgaW5rc2NhcGU6Y29ubmVjdG9yLWN1cnZhdHVyZT0iMCIgc3R5bGU9ImZpbGw6I0ZGRkZGRjsiIGQ9Ik0wLDQzLjV2Ni43NGgxMS4wMlY0My41SDB6Ii8+JiN4YTsJCTwvZz4mI3hhOwkJPGcgaWQ9InNoYXBlMzkwMi04IiB0cmFuc2Zvcm09InRyYW5zbGF0ZSgxNy4xNDA3LC0zMC42MzQ4KSI+JiN4YTsJCQk8dGl0bGUgaWQ9InRpdGxlMTA4MDk2Ij5TaGVldC4zOTAyPC90aXRsZT4mI3hhOwkJCTxwYXRoIGlkPSJwYXRoMTA4MDk4IiBpbmtzY2FwZTpjb25uZWN0b3ItY3VydmF0dXJlPSIwIiBzdHlsZT0iZmlsbDojRkZGRkZGOyIgZD0iTTAsNDMuNXY2Ljc0aDExLjAyVjQzLjVIMHoiLz4mI3hhOwkJPC9nPiYjeGE7CQk8ZyBpZD0ic2hhcGUzOTAzLTEwIiB0cmFuc2Zvcm09InRyYW5zbGF0ZSgxNy4xNDA3LC0xMy40NzkzKSI+JiN4YTsJCQk8dGl0bGUgaWQ9InRpdGxlMTA4MTAxIj5TaGVldC4zOTAzPC90aXRsZT4mI3hhOwkJCTxwYXRoIGlkPSJwYXRoMTA4MTAzIiBpbmtzY2FwZTpjb25uZWN0b3ItY3VydmF0dXJlPSIwIiBzdHlsZT0iZmlsbDojRkZGRkZGOyIgZD0iTTAsNDQuMTF2Ni4xM2gxMS4wMnYtNi4xM0gweiIvPiYjeGE7CQk8L2c+JiN4YTsJCTxnIGlkPSJzaGFwZTM5MDQtMTIiIHRyYW5zZm9ybT0idHJhbnNsYXRlKDMwLjYwODQsLTEzLjQ3OTMpIj4mI3hhOwkJCTx0aXRsZSBpZD0idGl0bGUxMDgxMDYiPlNoZWV0LjM5MDQ8L3RpdGxlPiYjeGE7CQkJPHBhdGggaWQ9InBhdGgxMDgxMDgiIGlua3NjYXBlOmNvbm5lY3Rvci1jdXJ2YXR1cmU9IjAiIHN0eWxlPSJmaWxsOiNGRkZGRkY7IiBkPSJNMCw0NC4xMXY2LjEzaDExLjAydi02LjEzSDB6Ii8+JiN4YTsJCTwvZz4mI3hhOwkJPGcgaWQ9InNoYXBlMzkwNS0xNCIgdHJhbnNmb3JtPSJ0cmFuc2xhdGUoMzAuNjA4NCwtMjIuMDU3MSkiPiYjeGE7CQkJPHRpdGxlIGlkPSJ0aXRsZTEwODExMSI+U2hlZXQuMzkwNTwvdGl0bGU+JiN4YTsJCQk8cGF0aCBpZD0icGF0aDEwODExMyIgaW5rc2NhcGU6Y29ubmVjdG9yLWN1cnZhdHVyZT0iMCIgc3R5bGU9ImZpbGw6I0ZGRkZGRjsiIGQ9Ik0wLDQzLjV2Ni43NGgxMS4wMlY0My41SDB6Ii8+JiN4YTsJCTwvZz4mI3hhOwkJPGcgaWQ9InNoYXBlMzkwNi0xNiIgdHJhbnNmb3JtPSJ0cmFuc2xhdGUoMzAuNjA4NCwtMzAuNjM0OCkiPiYjeGE7CQkJPHRpdGxlIGlkPSJ0aXRsZTEwODExNiI+U2hlZXQuMzkwNjwvdGl0bGU+JiN4YTsJCQk8cGF0aCBpZD0icGF0aDEwODExOCIgaW5rc2NhcGU6Y29ubmVjdG9yLWN1cnZhdHVyZT0iMCIgc3R5bGU9ImZpbGw6IzkyRDA1MDsiIGQ9Ik0wLDQzLjV2Ni43NGgxMS4wMlY0My41SDB6Ii8+JiN4YTsJCTwvZz4mI3hhOwkJPGcgaWQ9InNoYXBlMzkwNy0xOCIgdHJhbnNmb3JtPSJ0cmFuc2xhdGUoNC4yODUxNywtMzAuNjM0OCkiPiYjeGE7CQkJPHRpdGxlIGlkPSJ0aXRsZTEwODEyMSI+U2hlZXQuMzkwNzwvdGl0bGU+JiN4YTsJCQk8cGF0aCBpZD0icGF0aDEwODEyMyIgaW5rc2NhcGU6Y29ubmVjdG9yLWN1cnZhdHVyZT0iMCIgc3R5bGU9ImZpbGw6I0ZGRkZGRjsiIGQ9Ik0wLDQzLjV2Ni43NGgxMS4wMlY0My41SDB6Ii8+JiN4YTsJCTwvZz4mI3hhOwkJPGcgaWQ9InNoYXBlMzkwOC0yMCIgdHJhbnNmb3JtPSJ0cmFuc2xhdGUoNC4yODUxNywtMjIuMDU3MSkiPiYjeGE7CQkJPHRpdGxlIGlkPSJ0aXRsZTEwODEyNiI+U2hlZXQuMzkwODwvdGl0bGU+JiN4YTsJCQk8cGF0aCBpZD0icGF0aDEwODEyOCIgaW5rc2NhcGU6Y29ubmVjdG9yLWN1cnZhdHVyZT0iMCIgc3R5bGU9ImZpbGw6I0ZGRkZGRjsiIGQ9Ik0wLDQzLjV2Ni43NGgxMS4wMlY0My41SDB6Ii8+JiN4YTsJCTwvZz4mI3hhOwkJPGcgaWQ9InNoYXBlMzkwOS0yMiIgdHJhbnNmb3JtPSJ0cmFuc2xhdGUoNC4yODUxNywtMTMuNDc5MykiPiYjeGE7CQkJPHRpdGxlIGlkPSJ0aXRsZTEwODEzMSI+U2hlZXQuMzkwOTwvdGl0bGU+JiN4YTsJCQk8cGF0aCBpZD0icGF0aDEwODEzMyIgaW5rc2NhcGU6Y29ubmVjdG9yLWN1cnZhdHVyZT0iMCIgc3R5bGU9ImZpbGw6IzhEQzYzRjsiIGQ9Ik0wLDQ0LjExdjYuMTNoMTEuMDJ2LTYuMTNIMHoiLz4mI3hhOwkJPC9nPiYjeGE7CQk8ZyBpZD0ic2hhcGUzOTEwLTI0IiB0cmFuc2Zvcm09InRyYW5zbGF0ZSg0LjI4NTE3LC00LjI4ODg4KSI+JiN4YTsJCQk8dGl0bGUgaWQ9InRpdGxlMTA4MTM2Ij5TaGVldC4zOTEwPC90aXRsZT4mI3hhOwkJCTxwYXRoIGlkPSJwYXRoMTA4MTM4IiBpbmtzY2FwZTpjb25uZWN0b3ItY3VydmF0dXJlPSIwIiBzdHlsZT0iZmlsbDojRkZGRkZGOyIgZD0iTTAsNDMuNXY2Ljc0aDExLjAyVjQzLjVIMHoiLz4mI3hhOwkJPC9nPiYjeGE7CQk8ZyBpZD0ic2hhcGUzOTExLTI2IiB0cmFuc2Zvcm09InRyYW5zbGF0ZSgxNy4xNDA3LC00LjI4ODg4KSI+JiN4YTsJCQk8dGl0bGUgaWQ9InRpdGxlMTA4MTQxIj5TaGVldC4zOTExPC90aXRsZT4mI3hhOwkJCTxwYXRoIGlkPSJwYXRoMTA4MTQzIiBpbmtzY2FwZTpjb25uZWN0b3ItY3VydmF0dXJlPSIwIiBzdHlsZT0iZmlsbDojRkZGRkZGOyIgZD0iTTAsNDMuNXY2Ljc0aDExLjAyVjQzLjVIMHoiLz4mI3hhOwkJPC9nPiYjeGE7CQk8ZyBpZD0ic2hhcGUzOTEyLTI4IiB0cmFuc2Zvcm09InRyYW5zbGF0ZSgzMC42MDg0LC00LjI4ODg4KSI+JiN4YTsJCQk8dGl0bGUgaWQ9InRpdGxlMTA4MTQ2Ij5TaGVldC4zOTEyPC90aXRsZT4mI3hhOwkJCTxwYXRoIGlkPSJwYXRoMTA4MTQ4IiBpbmtzY2FwZTpjb25uZWN0b3ItY3VydmF0dXJlPSIwIiBzdHlsZT0iZmlsbDojRkZGRkZGOyIgZD0iTTAsNDMuNXY2Ljc0aDExLjAyVjQzLjVIMHoiLz4mI3hhOwkJPC9nPiYjeGE7CQk8ZyBpZD0ic2hhcGUzOTEzLTMwIiB0cmFuc2Zvcm09InRyYW5zbGF0ZSg0My40NjM5LC0xMy40NzkzKSI+JiN4YTsJCQk8dGl0bGUgaWQ9InRpdGxlMTA4MTUxIj5TaGVldC4zOTEzPC90aXRsZT4mI3hhOwkJCTxwYXRoIGlkPSJwYXRoMTA4MTUzIiBpbmtzY2FwZTpjb25uZWN0b3ItY3VydmF0dXJlPSIwIiBzdHlsZT0iZmlsbDojRkZGRkZGOyIgZD0iTTAsNDQuMTF2Ni4xM2gxMS4wMnYtNi4xM0gweiIvPiYjeGE7CQk8L2c+JiN4YTsJCTxnIGlkPSJzaGFwZTM5MTQtMzIiIHRyYW5zZm9ybT0idHJhbnNsYXRlKDQzLjQ2MzksLTIyLjA1NzEpIj4mI3hhOwkJCTx0aXRsZSBpZD0idGl0bGUxMDgxNTYiPlNoZWV0LjM5MTQ8L3RpdGxlPiYjeGE7CQkJPHBhdGggaWQ9InBhdGgxMDgxNTgiIGlua3NjYXBlOmNvbm5lY3Rvci1jdXJ2YXR1cmU9IjAiIHN0eWxlPSJmaWxsOiNGRkZGRkY7IiBkPSJNMCw0My41djYuNzRoMTEuMDJWNDMuNUgweiIvPiYjeGE7CQk8L2c+JiN4YTsJCTxnIGlkPSJzaGFwZTM5MTUtMzQiIHRyYW5zZm9ybT0idHJhbnNsYXRlKDQzLjQ2MzksLTMwLjYzNDgpIj4mI3hhOwkJCTx0aXRsZSBpZD0idGl0bGUxMDgxNjEiPlNoZWV0LjM5MTU8L3RpdGxlPiYjeGE7CQkJPHBhdGggaWQ9InBhdGgxMDgxNjMiIGlua3NjYXBlOmNvbm5lY3Rvci1jdXJ2YXR1cmU9IjAiIHN0eWxlPSJmaWxsOiM5MkQwNTA7IiBkPSJNMCw0My41djYuNzRoMTEuMDJWNDMuNUgweiIvPiYjeGE7CQk8L2c+JiN4YTsJCTxnIGlkPSJzaGFwZTM5MTYtMzYiIHRyYW5zZm9ybT0idHJhbnNsYXRlKDQzLjQ2MzksLTQuMjg4ODgpIj4mI3hhOwkJCTx0aXRsZSBpZD0idGl0bGUxMDgxNjYiPlNoZWV0LjM5MTY8L3RpdGxlPiYjeGE7CQkJPHBhdGggaWQ9InBhdGgxMDgxNjgiIGlua3NjYXBlOmNvbm5lY3Rvci1jdXJ2YXR1cmU9IjAiIHN0eWxlPSJmaWxsOiNGRkZGRkY7IiBkPSJNMCw0My41djYuNzRoMTEuMDJWNDMuNUgweiIvPiYjeGE7CQk8L2c+JiN4YTsJCTxnIGlkPSJzaGFwZTM5MTctMzgiIHRyYW5zZm9ybT0idHJhbnNsYXRlKDEuODM2NSkiPiYjeGE7CQkJPHRpdGxlIGlkPSJ0aXRsZTEwODE3MSI+U2hlZXQuMzkxNzwvdGl0bGU+JiN4YTsJCQk8cGF0aCBpZD0icGF0aDEwODE3MyIgaW5rc2NhcGU6Y29ubmVjdG9yLWN1cnZhdHVyZT0iMCIgc3R5bGU9ImZpbGw6IzFDNDI3RjsiIGQ9Ik0wLjE1LDUwLjI0YzAuMTIsMCwwLjIzLDAsMC40NiwwICAgICBjMi40OSwwLDIuNDksMCwyLjQ5LDBjMC4xMSwwLDAuMTEsMCwwLjExLDBjLTIuODMsMC0yLjgzLDAtMi44MywwQzAuMjcsNTAuMjQsMC4yNyw1MC4yNCwwLjE1LDUwLjI0eiBNNDkuNTksMCAgICAgQzAuNjEsMCwwLjYxLDAsMC42MSwwQzAuMzgsMCwwLjI3LDAsMCwwLjE1QzAuMTUsMC4xNSwwLjI3LDAsMC4zOCwwQzQ5LjU5LDAsNDkuNTksMCw0OS41OSwwTDQ5LjU5LDB6Ii8+JiN4YTsJCTwvZz4mI3hhOwkJPGcgaWQ9InNoYXBlMzkxOC00MCI+JiN4YTsJCQk8dGl0bGUgaWQ9InRpdGxlMTA4MTc2Ij5TaGVldC4zOTE4PC90aXRsZT4mI3hhOwkJCTxwYXRoIGlkPSJwYXRoMTA4MTc4IiBpbmtzY2FwZTpjb25uZWN0b3ItY3VydmF0dXJlPSIwIiBzdHlsZT0iZmlsbDojRTNFM0UzOyIgZD0iTTQuMzYsMzcuMDNjMC02LjY2LDAtNi42NiwwLTYuNjYgICAgIGMxMC43OSwwLDEwLjc5LDAsMTAuNzksMGMwLDYuNjYsMCw2LjY2LDAsNi42NkM0LjM2LDM3LjAzLDQuMzYsMzcuMDMsNC4zNiwzNy4wM3ogTTQuMzYsMjguMjJjMC02LjY2LDAtNi42NiwwLTYuNjYgICAgIGMxMC43OSwwLDEwLjc5LDAsMTAuNzksMGMwLDYuNjYsMCw2LjY2LDAsNi42NkM0LjM2LDI4LjIyLDQuMzYsMjguMjIsNC4zNiwyOC4yMnogTTQuMzYsMTkuNDFjMC02LjY2LDAtNi42NiwwLTYuNjYgICAgIGMxMC43OSwwLDEwLjc5LDAsMTAuNzksMGMwLDYuNjYsMCw2LjY2LDAsNi42NkM0LjM2LDE5LjQxLDQuMzYsMTkuNDEsNC4zNiwxOS40MXogTTE3LjQxLDE5LjQxYzAtNi42NiwwLTYuNjYsMC02LjY2ICAgICBjMTAuNzksMCwxMC43OSwwLDEwLjc5LDBjMCw2LjY2LDAsNi42NiwwLDYuNjZDMTcuNDEsMTkuNDEsMTcuNDEsMTkuNDEsMTcuNDEsMTkuNDF6IE00Mi44NSw4LjU4QzAsOC41OCwwLDguNTgsMCw4LjU4ICAgICBjMCwyLjAzLDAsMi4wMywwLDIuMDNjMCwzLjk0LDAsMy45NCwwLDMuOTRjMCwzMy4zMiwwLDMzLjMyLDAsMzMuMzJjMCwxLjE4LDAuODQsMi4xNCwxLjkxLDIuMzdjMC4xMiwwLDAuMTIsMCwwLjIzLDAgICAgIGMyLjgsMCwyLjgsMCwyLjgsMGM0LjAxLTQuNCw0LjAxLTQuNCw0LjAxLTQuNGMtNC41OSwwLTQuNTksMC00LjU5LDBjMC02LjY3LDAtNi42NywwLTYuNjdjMTAuNTYsMCwxMC41NiwwLDEwLjU2LDAgICAgIGMyLjQ5LTIuNiwyLjQ5LTIuNiwyLjQ5LTIuNmMwLTYuMiwwLTYuMiwwLTYuMmM1LjYyLDAsNS42MiwwLDUuNjIsMGMxLjk5LTIuMTUsMS45OS0yLjE1LDEuOTktMi4xNWMtNy42MSwwLTcuNjEsMC03LjYxLDAgICAgIGMwLTYuNjYsMC02LjY2LDAtNi42NmMxMC43OSwwLDEwLjc5LDAsMTAuNzksMGMwLDMuMSwwLDMuMSwwLDMuMWMyLjIyLTIuMzcsMi4yMi0yLjM3LDIuMjItMi4zN2MwLTAuNzMsMC0wLjczLDAtMC43MyAgICAgYzAuNjEsMCwwLjYxLDAsMC42MSwwYzEuOTktMi4xNSwxLjk5LTIuMTUsMS45OS0yLjE1Yy0yLjYsMC0yLjYsMC0yLjYsMGMwLTYuNjYsMC02LjY2LDAtNi42NmM4LjU3LDAsOC41NywwLDguNTcsMCAgICAgQzQyLjg1LDguNTgsNDIuODUsOC41OCw0Mi44NSw4LjU4eiIvPiYjeGE7CQk8L2c+JiN4YTsJCTxnIGlkPSJzaGFwZTM5MTktNDIiIHRyYW5zZm9ybT0idHJhbnNsYXRlKDAsLTQxLjY2MzQpIj4mI3hhOwkJCTx0aXRsZSBpZD0idGl0bGUxMDgxODEiPlNoZWV0LjM5MTk8L3RpdGxlPiYjeGE7CQkJPHBhdGggaWQ9InBhdGgxMDgxODMiIGlua3NjYXBlOmNvbm5lY3Rvci1jdXJ2YXR1cmU9IjAiIHN0eWxlPSJmaWxsOiM5OUNDNTM7IiBkPSJNNTEuNDIsNDEuNjZjLTQ5LjI4LDAtNDkuMjgsMC00OS4yOCwwICAgICBjLTAuMTEsMC0wLjIzLDAuMTItMC4zNCwwLjEyQzAuNzMsNDIuMDEsMCw0Mi45MywwLDQzLjkyYzAsNi4zMiwwLDYuMzIsMCw2LjMyYzQzLjE2LDAsNDMuMTYsMCw0My4xNiwwICAgICBDNTEuNDIsNDEuNjYsNTEuNDIsNDEuNjYsNTEuNDIsNDEuNjZ6Ii8+JiN4YTsJCTwvZz4mI3hhOwkJPGcgaWQ9InNoYXBlMzkyMC00NCIgdHJhbnNmb3JtPSJ0cmFuc2xhdGUoMTcuMTQwNywtMjIuMDU3MSkiPiYjeGE7CQkJPHRpdGxlIGlkPSJ0aXRsZTEwODE4NiI+U2hlZXQuMzkyMDwvdGl0bGU+JiN4YTsJCQk8cGF0aCBpZD0icGF0aDEwODE4OCIgaW5rc2NhcGU6Y29ubmVjdG9yLWN1cnZhdHVyZT0iMCIgc3R5bGU9ImZpbGw6I0ZGRkZGRjsiIGQ9Ik0xMS4wMiw0My41SDB2Ni43NGg3LjgxbDMuMjEtMy42VjQzLjV6Ii8+JiN4YTsJCTwvZz4mI3hhOwkJPGcgaWQ9InNoYXBlMzkyMS00NiIgdHJhbnNmb3JtPSJ0cmFuc2xhdGUoMTcuMTQwNywtMzAuNjM0OCkiPiYjeGE7CQkJPHRpdGxlIGlkPSJ0aXRsZTEwODE5MSI+U2hlZXQuMzkyMTwvdGl0bGU+JiN4YTsJCQk8cGF0aCBpZD0icGF0aDEwODE5MyIgaW5rc2NhcGU6Y29ubmVjdG9yLWN1cnZhdHVyZT0iMCIgc3R5bGU9ImZpbGw6IzkyRDA1MDsiIGQ9Ik0wLDQzLjV2Ni43NGgxMS4wMlY0My41SDB6Ii8+JiN4YTsJCTwvZz4mI3hhOwkJPGcgaWQ9InNoYXBlMzkyMi00OCIgdHJhbnNmb3JtPSJ0cmFuc2xhdGUoMTcuMTQwNywtMTMuNDc5MykiPiYjeGE7CQkJPHRpdGxlIGlkPSJ0aXRsZTEwODE5NiI+U2hlZXQuMzkyMjwvdGl0bGU+JiN4YTsJCQk8cGF0aCBpZD0icGF0aDEwODE5OCIgaW5rc2NhcGU6Y29ubmVjdG9yLWN1cnZhdHVyZT0iMCIgc3R5bGU9ImZpbGw6I0ZGRkZGRjsiIGQ9Ik02LjEyLDQ0LjExSDB2Ni4xM0w2LjEyLDQ0LjExeiIvPiYjeGE7CQk8L2c+JiN4YTsJCTxnIGlkPSJzaGFwZTM5MjMtNTAiIHRyYW5zZm9ybT0idHJhbnNsYXRlKDMwLjYwODQsLTI3LjU3MTQpIj4mI3hhOwkJCTx0aXRsZSBpZD0idGl0bGUxMDgyMDEiPlNoZWV0LjM5MjM8L3RpdGxlPiYjeGE7CQkJPHBhdGggaWQ9InBhdGgxMDgyMDMiIGlua3NjYXBlOmNvbm5lY3Rvci1jdXJ2YXR1cmU9IjAiIHN0eWxlPSJmaWxsOiNGRkZGRkY7IiBkPSJNMC42MSw0OS4wMkgwdjEuMjJMMC42MSw0OS4wMnoiLz4mI3hhOwkJPC9nPiYjeGE7CQk8ZyBpZD0ic2hhcGUzOTI0LTUyIiB0cmFuc2Zvcm09InRyYW5zbGF0ZSgzMC42MDg0LC0zMC42MzQ4KSI+JiN4YTsJCQk8dGl0bGUgaWQ9InRpdGxlMTA4MjA2Ij5TaGVldC4zOTI0PC90aXRsZT4mI3hhOwkJCTxwYXRoIGlkPSJwYXRoMTA4MjA4IiBpbmtzY2FwZTpjb25uZWN0b3ItY3VydmF0dXJlPSIwIiBzdHlsZT0iZmlsbDojOTJEMDUwOyIgZD0iTTguNTcsNDMuNUgwdjYuNzRoMi42NEw4LjU3LDQzLjV6Ii8+JiN4YTsJCTwvZz4mI3hhOwkJPGcgaWQ9InNoYXBlMzkyNS01NCIgdHJhbnNmb3JtPSJ0cmFuc2xhdGUoNC4yODUxNywtMzAuNjM0OCkiPiYjeGE7CQkJPHRpdGxlIGlkPSJ0aXRsZTEwODIxMSI+U2hlZXQuMzkyNTwvdGl0bGU+JiN4YTsJCQk8cGF0aCBpZD0icGF0aDEwODIxMyIgaW5rc2NhcGU6Y29ubmVjdG9yLWN1cnZhdHVyZT0iMCIgc3R5bGU9ImZpbGw6IzkyRDA1MDsiIGQ9Ik0wLDQzLjV2Ni43NGgxMS4wMlY0My41SDB6Ii8+JiN4YTsJCTwvZz4mI3hhOwkJPGcgaWQ9InNoYXBlMzkyNi01NiIgdHJhbnNmb3JtPSJ0cmFuc2xhdGUoNC4yODUxNywtMjIuMDU3MSkiPiYjeGE7CQkJPHRpdGxlIGlkPSJ0aXRsZTEwODIxNiI+U2hlZXQuMzkyNjwvdGl0bGU+JiN4YTsJCQk8cGF0aCBpZD0icGF0aDEwODIxOCIgaW5rc2NhcGU6Y29ubmVjdG9yLWN1cnZhdHVyZT0iMCIgc3R5bGU9ImZpbGw6I0ZGRkZGRjsiIGQ9Ik0wLDQzLjV2Ni43NGgxMS4wMlY0My41SDB6Ii8+JiN4YTsJCTwvZz4mI3hhOwkJPGcgaWQ9InNoYXBlMzkyNy01OCIgdHJhbnNmb3JtPSJ0cmFuc2xhdGUoNC4yODUxNywtMTMuNDc5MykiPiYjeGE7CQkJPHRpdGxlIGlkPSJ0aXRsZTEwODIyMSI+U2hlZXQuMzkyNzwvdGl0bGU+JiN4YTsJCQk8cGF0aCBpZD0icGF0aDEwODIyMyIgaW5rc2NhcGU6Y29ubmVjdG9yLWN1cnZhdHVyZT0iMCIgc3R5bGU9ImZpbGw6I0ZGRkZGRjsiIGQ9Ik0wLDQ0LjExdjYuMTNoMTEuMDJ2LTYuMTNIMHoiLz4mI3hhOwkJPC9nPiYjeGE7CQk8ZyBpZD0ic2hhcGUzOTI4LTYwIiB0cmFuc2Zvcm09InRyYW5zbGF0ZSg0LjIxODc1LC00LjI4ODg4KSI+JiN4YTsJCQk8dGl0bGUgaWQ9InRpdGxlMTA4MjI2Ij5TaGVldC4zOTI4PC90aXRsZT4mI3hhOwkJCTxwYXRoIGlkPSJwYXRoMTA4MjI4IiBpbmtzY2FwZTpjb25uZWN0b3ItY3VydmF0dXJlPSIwIiBzdHlsZT0iZmlsbDojRkZGRkZGOyIgZD0iTTEwLjQxLDQzLjVIMHY2Ljc0aDQuNTFMMTAuNDEsNDMuNXoiLz4mI3hhOwkJPC9nPiYjeGE7CTwvZz4mI3hhOzwvZz4mI3hhOzwvc3ZnPg==;" vertex="1" parent="1">
          <mxGeometry x="1106" y="448" width="102.66" height="87" as="geometry" />
        </mxCell>
        <mxCell id="esfX10ickzwYWV4Qpk32-76" value="&lt;font style=&quot;font-size: 28px;&quot;&gt;Climate data&lt;br&gt;&lt;/font&gt;" style="text;strokeColor=none;align=center;fillColor=none;html=1;verticalAlign=middle;whiteSpace=wrap;rounded=0;fontSize=21;" vertex="1" parent="1">
          <mxGeometry x="1075" y="350" width="180" height="57" as="geometry" />
        </mxCell>
        <mxCell id="esfX10ickzwYWV4Qpk32-77" value="Temporal observations" style="text;strokeColor=none;align=center;fillColor=none;html=1;verticalAlign=middle;whiteSpace=wrap;rounded=0;fontSize=21;" vertex="1" parent="1">
          <mxGeometry x="780" y="715" width="250" height="30" as="geometry" />
        </mxCell>
        <mxCell id="esfX10ickzwYWV4Qpk32-78" value="" style="group;fontStyle=4" vertex="1" connectable="0" parent="1">
          <mxGeometry x="170" y="190" width="390" height="870" as="geometry" />
        </mxCell>
        <mxCell id="2a0f93b5c73ef8e7-1" value="" style="line;strokeWidth=10;direction=south;html=1;fillColor=none;fontSize=13;fontColor=#000000;align=center;strokeColor=#AE4132;fontStyle=4" parent="esfX10ickzwYWV4Qpk32-78" vertex="1">
          <mxGeometry x="190" width="10" height="817.2727272727273" as="geometry" />
        </mxCell>
        <mxCell id="2a0f93b5c73ef8e7-2" value="" style="rounded=1;whiteSpace=wrap;html=1;strokeColor=none;strokeWidth=1;fillColor=#F2931E;fontSize=13;fontColor=#FFFFFF;align=center;gradientColor=none;gradientDirection=east;verticalAlign=top;shadow=1;fontStyle=4" parent="esfX10ickzwYWV4Qpk32-78" vertex="1">
          <mxGeometry y="57.12121212121212" width="220" height="74.6969696969697" as="geometry" />
        </mxCell>
        <mxCell id="2a0f93b5c73ef8e7-3" value="1" style="text;html=1;strokeColor=none;fillColor=none;align=center;verticalAlign=middle;whiteSpace=wrap;fontSize=30;fontColor=#FFFFFF;fontStyle=4" parent="esfX10ickzwYWV4Qpk32-78" vertex="1">
          <mxGeometry x="10" y="86.12121212121212" width="40" height="17.575757575757574" as="geometry" />
        </mxCell>
        <mxCell id="2a0f93b5c73ef8e7-18" value="&lt;h1&gt;Tillage&lt;/h1&gt;&lt;p&gt;Type of tillage&lt;/p&gt;&lt;p&gt;date&lt;br&gt;&lt;/p&gt;" style="text;html=1;spacing=5;spacingTop=-20;whiteSpace=wrap;overflow=hidden;strokeColor=none;strokeWidth=4;fillColor=none;gradientColor=#007FFF;fontSize=9;fontColor=#FFFFFF;align=center;fontStyle=4" parent="esfX10ickzwYWV4Qpk32-78" vertex="1">
          <mxGeometry x="50" y="60.63636363636363" width="160" height="67.66666666666667" as="geometry" />
        </mxCell>
        <mxCell id="esfX10ickzwYWV4Qpk32-8" value="" style="edgeStyle=none;orthogonalLoop=1;jettySize=auto;html=1;rounded=0;strokeWidth=10;fontStyle=4" edge="1" parent="esfX10ickzwYWV4Qpk32-78">
          <mxGeometry width="80" relative="1" as="geometry">
            <mxPoint x="195" y="826.060606060606" as="sourcePoint" />
            <mxPoint x="195" y="861.2121212121212" as="targetPoint" />
            <Array as="points" />
          </mxGeometry>
        </mxCell>
        <mxCell id="esfX10ickzwYWV4Qpk32-9" value="Time (daily)" style="text;strokeColor=none;align=center;fillColor=none;html=1;verticalAlign=middle;whiteSpace=wrap;rounded=0;fontSize=21;fontStyle=4" vertex="1" parent="esfX10ickzwYWV4Qpk32-78">
          <mxGeometry x="210" y="843.6363636363636" width="60" height="26.363636363636363" as="geometry" />
        </mxCell>
        <mxCell id="esfX10ickzwYWV4Qpk32-79" value="" style="group;fontStyle=4" vertex="1" connectable="0" parent="esfX10ickzwYWV4Qpk32-78">
          <mxGeometry x="170" y="158.1818181818182" width="220" height="74.69696969696969" as="geometry" />
        </mxCell>
        <mxCell id="2a0f93b5c73ef8e7-4" value="" style="rounded=1;whiteSpace=wrap;html=1;strokeColor=none;strokeWidth=1;fillColor=#10739E;fontSize=13;fontColor=#FFFFFF;align=center;gradientColor=none;gradientDirection=east;verticalAlign=top;shadow=1;fontStyle=4" parent="esfX10ickzwYWV4Qpk32-79" vertex="1">
          <mxGeometry width="220" height="74.6969696969697" as="geometry" />
        </mxCell>
        <mxCell id="2a0f93b5c73ef8e7-5" value="2" style="text;html=1;strokeColor=none;fillColor=none;align=center;verticalAlign=middle;whiteSpace=wrap;fontSize=30;fontColor=#FFFFFF;fontStyle=4" parent="esfX10ickzwYWV4Qpk32-79" vertex="1">
          <mxGeometry x="10" y="29" width="40" height="17.575757575757574" as="geometry" />
        </mxCell>
        <mxCell id="2a0f93b5c73ef8e7-19" value="&lt;h1&gt;Sowing&lt;/h1&gt;&lt;p&gt;#plant_name&lt;/p&gt;&lt;p&gt;#sowing_date&lt;br&gt;&lt;/p&gt;" style="text;html=1;spacing=5;spacingTop=-20;whiteSpace=wrap;overflow=hidden;strokeColor=none;strokeWidth=4;fillColor=none;gradientColor=#007FFF;fontSize=9;fontColor=#FFFFFF;align=center;fontStyle=4" parent="esfX10ickzwYWV4Qpk32-79" vertex="1">
          <mxGeometry x="60" y="3.5151515151515014" width="160" height="67.66666666666667" as="geometry" />
        </mxCell>
        <mxCell id="esfX10ickzwYWV4Qpk32-80" value="" style="group;fontStyle=4" vertex="1" connectable="0" parent="esfX10ickzwYWV4Qpk32-78">
          <mxGeometry y="254.84848484848484" width="220" height="74.69696969696972" as="geometry" />
        </mxCell>
        <mxCell id="2a0f93b5c73ef8e7-6" value="" style="rounded=1;whiteSpace=wrap;html=1;strokeColor=none;strokeWidth=1;fillColor=#F2931E;fontSize=13;fontColor=#FFFFFF;align=center;gradientColor=none;gradientDirection=east;verticalAlign=top;shadow=1;fontStyle=4" parent="esfX10ickzwYWV4Qpk32-80" vertex="1">
          <mxGeometry width="220" height="74.6969696969697" as="geometry" />
        </mxCell>
        <mxCell id="2a0f93b5c73ef8e7-7" value="3" style="text;html=1;strokeColor=none;fillColor=none;align=center;verticalAlign=middle;whiteSpace=wrap;fontSize=30;fontColor=#FFFFFF;fontStyle=4" parent="esfX10ickzwYWV4Qpk32-80" vertex="1">
          <mxGeometry x="10" y="29.00000000000003" width="40" height="17.575757575757574" as="geometry" />
        </mxCell>
        <mxCell id="2a0f93b5c73ef8e7-20" value="&lt;h1&gt;Mineral fertilization&lt;br&gt;&lt;/h1&gt;&lt;p&gt;dose, product&lt;br&gt;&lt;/p&gt;" style="text;html=1;spacing=5;spacingTop=-20;whiteSpace=wrap;overflow=hidden;strokeColor=none;strokeWidth=4;fillColor=none;gradientColor=#007FFF;fontSize=9;fontColor=#FFFFFF;align=center;fontStyle=4" parent="esfX10ickzwYWV4Qpk32-80" vertex="1">
          <mxGeometry x="50" y="3.51515151515153" width="160" height="67.66666666666667" as="geometry" />
        </mxCell>
        <mxCell id="esfX10ickzwYWV4Qpk32-81" value="" style="group;fontStyle=4" vertex="1" connectable="0" parent="esfX10ickzwYWV4Qpk32-78">
          <mxGeometry x="170" y="355.90909090909093" width="220" height="74.69696969696969" as="geometry" />
        </mxCell>
        <mxCell id="2a0f93b5c73ef8e7-8" value="" style="rounded=1;whiteSpace=wrap;html=1;strokeColor=none;strokeWidth=1;fillColor=#10739E;fontSize=13;fontColor=#FFFFFF;align=center;gradientColor=none;gradientDirection=east;verticalAlign=top;shadow=1;fontStyle=4" parent="esfX10ickzwYWV4Qpk32-81" vertex="1">
          <mxGeometry width="220" height="74.6969696969697" as="geometry" />
        </mxCell>
        <mxCell id="2a0f93b5c73ef8e7-9" value="4" style="text;html=1;strokeColor=none;fillColor=none;align=center;verticalAlign=middle;whiteSpace=wrap;fontSize=30;fontColor=#FFFFFF;fontStyle=4" parent="esfX10ickzwYWV4Qpk32-81" vertex="1">
          <mxGeometry x="10" y="29" width="40" height="17.575757575757574" as="geometry" />
        </mxCell>
        <mxCell id="2a0f93b5c73ef8e7-21" value="&lt;h1&gt;Harvest&lt;/h1&gt;&lt;p&gt;#residue_management&lt;/p&gt;&lt;p&gt;#harvest_date&lt;br&gt;&lt;/p&gt;" style="text;html=1;spacing=5;spacingTop=-20;whiteSpace=wrap;overflow=hidden;strokeColor=none;strokeWidth=4;fillColor=none;gradientColor=#007FFF;fontSize=9;fontColor=#FFFFFF;align=center;fontStyle=4" parent="esfX10ickzwYWV4Qpk32-81" vertex="1">
          <mxGeometry x="50" y="1.7575757575757507" width="160" height="67.66666666666667" as="geometry" />
        </mxCell>
        <mxCell id="esfX10ickzwYWV4Qpk32-82" value="" style="group;fontStyle=4" vertex="1" connectable="0" parent="esfX10ickzwYWV4Qpk32-78">
          <mxGeometry y="456.96969696969694" width="220" height="74.69696969696969" as="geometry" />
        </mxCell>
        <mxCell id="2a0f93b5c73ef8e7-10" value="" style="rounded=1;whiteSpace=wrap;html=1;strokeColor=none;strokeWidth=1;fillColor=#F2931E;fontSize=13;fontColor=#FFFFFF;align=center;gradientColor=none;gradientDirection=east;verticalAlign=top;shadow=1;fontStyle=4" parent="esfX10ickzwYWV4Qpk32-82" vertex="1">
          <mxGeometry width="220" height="74.6969696969697" as="geometry" />
        </mxCell>
        <mxCell id="2a0f93b5c73ef8e7-11" value="5" style="text;html=1;strokeColor=none;fillColor=none;align=center;verticalAlign=middle;whiteSpace=wrap;fontSize=30;fontColor=#FFFFFF;fontStyle=4" parent="esfX10ickzwYWV4Qpk32-82" vertex="1">
          <mxGeometry x="10" y="29" width="40" height="17.575757575757574" as="geometry" />
        </mxCell>
        <mxCell id="esfX10ickzwYWV4Qpk32-1" value="&lt;h1&gt;Organic fertilization&lt;br&gt;&lt;/h1&gt;&lt;p&gt;dose, product&lt;br&gt;&lt;/p&gt;" style="text;html=1;spacing=5;spacingTop=-20;whiteSpace=wrap;overflow=hidden;strokeColor=none;strokeWidth=4;fillColor=none;gradientColor=#007FFF;fontSize=9;fontColor=#FFFFFF;align=center;fontStyle=4" vertex="1" parent="esfX10ickzwYWV4Qpk32-82">
          <mxGeometry x="50" y="7.03030303030306" width="160" height="67.66666666666667" as="geometry" />
        </mxCell>
        <mxCell id="esfX10ickzwYWV4Qpk32-83" value="" style="group;fontStyle=4" vertex="1" connectable="0" parent="esfX10ickzwYWV4Qpk32-78">
          <mxGeometry y="562.4242424242424" width="220" height="74.69696969696975" as="geometry" />
        </mxCell>
        <mxCell id="esfX10ickzwYWV4Qpk32-2" value="" style="rounded=1;whiteSpace=wrap;html=1;strokeColor=none;strokeWidth=1;fillColor=#F2931E;fontSize=13;fontColor=#FFFFFF;align=center;gradientColor=none;gradientDirection=east;verticalAlign=top;shadow=1;fontStyle=4" vertex="1" parent="esfX10ickzwYWV4Qpk32-83">
          <mxGeometry width="220" height="74.6969696969697" as="geometry" />
        </mxCell>
        <mxCell id="esfX10ickzwYWV4Qpk32-3" value="6" style="text;html=1;strokeColor=none;fillColor=none;align=center;verticalAlign=middle;whiteSpace=wrap;fontSize=30;fontColor=#FFFFFF;fontStyle=4" vertex="1" parent="esfX10ickzwYWV4Qpk32-83">
          <mxGeometry x="10" y="29" width="40" height="17.575757575757574" as="geometry" />
        </mxCell>
        <mxCell id="esfX10ickzwYWV4Qpk32-4" value="&lt;h1&gt;Tillage&lt;/h1&gt;&lt;p&gt;Type of tillage&lt;/p&gt;&lt;p&gt;date&lt;br&gt;&lt;/p&gt;" style="text;html=1;spacing=5;spacingTop=-20;whiteSpace=wrap;overflow=hidden;strokeColor=none;strokeWidth=4;fillColor=none;gradientColor=#007FFF;fontSize=9;fontColor=#FFFFFF;align=center;fontStyle=4" vertex="1" parent="esfX10ickzwYWV4Qpk32-83">
          <mxGeometry x="50" y="3.5151515151515014" width="160" height="67.66666666666667" as="geometry" />
        </mxCell>
        <mxCell id="esfX10ickzwYWV4Qpk32-84" value="" style="group;fontStyle=4" vertex="1" connectable="0" parent="esfX10ickzwYWV4Qpk32-78">
          <mxGeometry x="170" y="677.5454545454545" width="220" height="74.69696969696975" as="geometry" />
        </mxCell>
        <mxCell id="esfX10ickzwYWV4Qpk32-5" value="" style="rounded=1;whiteSpace=wrap;html=1;strokeColor=none;strokeWidth=1;fillColor=#10739E;fontSize=13;fontColor=#FFFFFF;align=center;gradientColor=none;gradientDirection=east;verticalAlign=top;shadow=1;fontStyle=4" vertex="1" parent="esfX10ickzwYWV4Qpk32-84">
          <mxGeometry width="220" height="74.6969696969697" as="geometry" />
        </mxCell>
        <mxCell id="esfX10ickzwYWV4Qpk32-7" value="&lt;h1&gt;&lt;font style=&quot;font-size: 20px;&quot;&gt;...&lt;/font&gt;&lt;/h1&gt;&lt;font style=&quot;font-size: 20px;&quot;&gt;&lt;br&gt;&lt;/font&gt;" style="text;html=1;spacing=5;spacingTop=-20;whiteSpace=wrap;overflow=hidden;strokeColor=none;strokeWidth=4;fillColor=none;gradientColor=#007FFF;fontSize=9;fontColor=#FFFFFF;align=center;fontStyle=4" vertex="1" parent="esfX10ickzwYWV4Qpk32-84">
          <mxGeometry x="30" y="21.090909090909122" width="160" height="32.515151515151516" as="geometry" />
        </mxCell>
      </root>
    </mxGraphModel>
  </diagram>
</mxfile>
